<?xml version="1.0" encoding="utf-8"?>
<!--Designed by Vexels.com - 2018 All Rights Reserved - https://vexels.com/terms-and-conditions/-->
<svg version="1.1" id="Layer_1" xmlns="http://www.w3.org/2000/svg" xmlns:xlink="http://www.w3.org/1999/xlink" x="0px" y="0px"
	 viewBox="0 0 1200 1200" enable-background="new 0 0 1200 1200" xml:space="preserve">
<g>
	<path opacity="0.1" d="M608.817,1150c-71.122,0-140.116-13.929-205.059-41.397c-62.733-26.534-119.074-64.519-167.458-112.908
		c-48.385-48.381-86.373-104.723-112.907-167.456c-27.467-64.945-41.397-133.932-41.397-205.056
		c0-71.128,13.929-140.119,41.397-205.058c26.534-62.738,64.521-119.08,112.907-167.464
		c48.383-48.386,104.725-86.373,167.458-112.904c64.943-27.468,133.936-41.398,205.059-41.398
		c71.123,0,140.118,13.926,205.061,41.396c62.728,26.534,119.073,64.52,167.458,112.906
		c48.381,48.384,86.37,104.725,112.905,167.457c27.47,64.943,41.394,133.937,41.394,205.061s-13.924,140.116-41.394,205.06
		c-26.535,62.733-64.524,119.071-112.905,167.456c-48.385,48.388-104.729,86.373-167.458,112.908
		C748.935,1136.071,679.94,1150,608.817,1150z"/>
	<path fill="#4376B9" d="M1128.002,581.819c0,293.72-238.099,531.819-531.819,531.819S64.365,875.539,64.365,581.819
		S302.463,50,596.183,50S1128.002,288.099,1128.002,581.819z"/>
	<path opacity="0.5" fill="#3A5379" d="M607.161,280.335c180.717,0,357.129,57.888,502.455,162.494
		C1048.502,216.526,841.81,50,596.183,50C343.269,50,131.609,226.544,77.676,463.119
		C227.872,345.738,415.081,280.335,607.161,280.335z"/>
	<radialGradient id="SVGID_1_" cx="596.1834" cy="581.8188" r="485.4689" gradientUnits="userSpaceOnUse">
		<stop  offset="0.9449" style="stop-color:#FFFFFF"/>
		<stop  offset="1" style="stop-color:#CACACA"/>
	</radialGradient>
	<circle fill="url(#SVGID_1_)" cx="596.183" cy="581.819" r="485.469"/>
	<path fill="#F6F6F6" d="M608.907,248.465c146.874,0,290.898,38.25,417.706,108.727C945.548,202.17,783.243,96.35,596.183,96.35
		c-195.417,0-363.839,115.479-440.821,281.905C290.533,294.364,448.01,248.465,608.907,248.465z"/>
	<g>
		<linearGradient id="SVGID_2_" gradientUnits="userSpaceOnUse" x1="597.3489" y1="1451.4679" x2="597.3489" y2="-1362.0748">
			<stop  offset="0.0703" style="stop-color:#FFFFFF"/>
			<stop  offset="0.3304" style="stop-color:#F6F6F6"/>
			<stop  offset="0.7475" style="stop-color:#DFDFDF"/>
			<stop  offset="0.9073" style="stop-color:#D4D4D4"/>
		</linearGradient>
		<path fill="url(#SVGID_2_)" d="M597.35,1045.432c-62.589,0-123.305-12.257-180.456-36.43
			c-55.207-23.351-104.788-56.779-147.366-99.361c-42.58-42.576-76.01-92.158-99.36-147.365
			c-24.172-57.152-36.43-117.863-36.43-180.454c0-62.594,12.258-123.307,36.43-180.455c23.351-55.211,56.78-104.793,99.36-147.371
			c42.579-42.58,92.16-76.01,147.366-99.358c57.151-24.173,117.867-36.431,180.456-36.431c62.589,0,123.306,12.255,180.458,36.429
			c55.202,23.35,104.787,56.779,147.366,99.36c42.576,42.578,76.007,92.161,99.359,147.365
			c24.174,57.152,36.427,117.867,36.427,180.458c0,62.591-12.253,123.305-36.427,180.457
			c-23.352,55.207-56.783,104.785-99.359,147.365c-42.579,42.583-92.164,76.011-147.366,99.361
			C720.656,1033.175,659.939,1045.432,597.35,1045.432z"/>
		<linearGradient id="SVGID_3_" gradientUnits="userSpaceOnUse" x1="596.0497" y1="100.2604" x2="596.0497" y2="1068.349">
			<stop  offset="0.0083" style="stop-color:#5F646A"/>
			<stop  offset="0.3094" style="stop-color:#767C85"/>
			<stop  offset="0.6426" style="stop-color:#8B919C"/>
			<stop  offset="0.8503" style="stop-color:#9299A5"/>
		</linearGradient>
		<path opacity="0.2" fill="url(#SVGID_3_)" d="M596.05,136.049c60.187,0,118.563,11.782,173.51,35.026
			c53.08,22.45,100.758,54.595,141.702,95.536c40.941,40.945,73.082,88.616,95.533,141.699
			c23.243,54.947,35.029,113.327,35.029,173.509c0,60.185-11.786,118.558-35.029,173.509
			c-22.451,53.082-54.592,100.754-95.533,141.697c-40.944,40.942-88.622,73.089-141.702,95.542
			c-54.948,23.241-113.323,35.023-173.51,35.023h-0.001c-60.174,0-118.551-11.782-173.5-35.027
			c-53.081-22.454-100.757-54.598-141.702-95.544c-40.944-40.943-73.084-88.615-95.541-141.696
			C162.066,700.372,150.28,642,150.28,581.823c0-60.183,11.786-118.565,35.022-173.513c22.452-53.08,54.596-100.754,95.541-141.698
			c40.94-40.942,88.615-73.087,141.698-95.537C477.491,147.832,535.872,136.049,596.05,136.049L596.05,136.049z M596.05,117.174
			c-256.615,0-464.644,208.03-464.644,464.65c0,256.615,208.029,464.641,464.644,464.641c256.618,0,464.643-208.026,464.643-464.645
			C1060.693,325.203,852.668,117.174,596.05,117.174L596.05,117.174z"/>
	</g>
	<g>
		<g>
			<g>
				<path fill="#494942" d="M322.53,271.964c1.033-0.922,1.12-2.517,0.194-3.546l-19.372-21.514
					c-0.926-1.029-2.529-1.115-3.561-0.193l-2.493,2.245c-1.024,0.932-1.103,2.536-0.177,3.565l19.371,21.513
					c0.926,1.029,2.521,1.108,3.545,0.175L322.53,271.964z"/>
			</g>
			<g>
				<path fill="#494942" d="M356.049,245.008c1.123-0.81,1.376-2.388,0.562-3.508l-17.016-23.418
					c-0.814-1.12-2.398-1.374-3.521-0.564l-2.711,1.974c-1.115,0.821-1.362,2.408-0.548,3.528l17.016,23.422
					c0.814,1.12,2.391,1.364,3.505,0.543L356.049,245.008z"/>
			</g>
			<g>
				<path fill="#494942" d="M185.321,578.441c0-1.398,0.003-1.671,0.003-1.671c0.015-1.384-1.106-2.517-2.49-2.517h-28.95
					c-1.384,0-2.528,1.132-2.542,2.517c0,0-0.003,0.274-0.003,1.671c0,1.402,0.003,1.686,0.003,1.686
					c0.014,1.384,1.158,2.517,2.542,2.517h28.95c1.384,0,2.505-1.133,2.49-2.517C185.324,580.127,185.321,579.843,185.321,578.441z"
					/>
			</g>
			<g>
				<path fill="#494942" d="M430.593,202.295c1.267-0.558,1.843-2.048,1.28-3.313l-11.777-26.457
					c-0.563-1.265-2.06-1.842-3.326-1.284l-3.065,1.368c-1.262,0.57-1.833,2.071-1.27,3.336l11.778,26.454
					c0.563,1.265,2.056,1.833,3.317,1.262L430.593,202.295z"/>
			</g>
			<g>
				<path fill="#494942" d="M470.819,187.033c1.319-0.421,2.048-1.842,1.62-3.159l-8.949-27.542
					c-0.428-1.316-1.857-2.049-3.176-1.629l-3.191,1.037c-1.314,0.434-2.04,1.866-1.612,3.183l8.948,27.542
					c0.428,1.317,1.853,2.038,3.167,1.603L470.819,187.033z"/>
			</g>
			<g>
				<path fill="#494942" d="M554.949,169.591c1.378-0.135,2.386-1.371,2.241-2.748l-3.028-28.793
					c-0.145-1.377-1.391-2.392-2.768-2.257l-3.338,0.345c-1.376,0.148-2.384,1.395-2.239,2.771l3.026,28.794
					c0.145,1.377,1.389,2.382,2.766,2.233L554.949,169.591z"/>
			</g>
			<g>
				<path fill="#494942" d="M512.427,176.099c1.355-0.28,2.229-1.617,1.941-2.971l-6.024-28.326
					c-0.288-1.354-1.633-2.232-2.988-1.951l-3.282,0.692c-1.353,0.293-2.224,1.641-1.936,2.995l6.023,28.328
					c0.288,1.354,1.63,2.221,2.983,1.928L512.427,176.099z"/>
			</g>
			<g>
				<path fill="#494942" d="M392.198,221.697c1.202-0.686,1.62-2.228,0.928-3.427l-14.475-25.076
					c-0.692-1.199-2.242-1.619-3.445-0.933l-2.905,1.679c-1.196,0.697-1.608,2.249-0.916,3.447l14.479,25.075
					c0.692,1.199,2.237,1.609,3.432,0.911L392.198,221.697z"/>
			</g>
			<g>
				<path fill="#494942" d="M205.858,449.843c0.434-1.314-0.287-2.74-1.604-3.168l-27.541-8.95
					c-1.316-0.428-2.748,0.298-3.182,1.612l-1.037,3.193c-0.421,1.319,0.311,2.748,1.628,3.176l27.538,8.95
					c1.316,0.428,2.738-0.301,3.159-1.62L205.858,449.843z"/>
			</g>
			<g>
				<path fill="#494942" d="M194.581,491.358c0.295-1.353-0.572-2.694-1.926-2.982l-28.324-6.018
					c-1.354-0.288-2.702,0.584-2.996,1.936l-0.694,3.283c-0.28,1.356,0.599,2.7,1.953,2.988l28.323,6.019
					c1.354,0.288,2.691-0.586,2.971-1.942L194.581,491.358z"/>
			</g>
			<g>
				<path fill="#494942" d="M187.726,533.828c0.148-1.376-0.858-2.621-2.235-2.766l-28.792-3.026
					c-1.376-0.145-2.624,0.863-2.772,2.239l-0.346,3.338c-0.134,1.377,0.882,2.623,2.259,2.768l28.792,3.028
					c1.377,0.145,2.612-0.864,2.746-2.242L187.726,533.828z"/>
			</g>
			<g>
				<path fill="#494942" d="M291.996,302.251c0.932-1.023,0.853-2.619-0.176-3.545l-21.515-19.372
					c-1.029-0.926-2.633-0.846-3.564,0.178l-2.246,2.493c-0.923,1.032-0.837,2.634,0.192,3.56l21.516,19.373
					c1.029,0.926,2.624,0.839,3.546-0.194L291.996,302.251z"/>
			</g>
			<g>
				<path fill="#494942" d="M264.771,335.551c0.821-1.114,0.577-2.692-0.543-3.505l-23.423-17.017
					c-1.12-0.814-2.707-0.567-3.528,0.548l-1.974,2.716c-0.809,1.123-0.555,2.708,0.565,3.521l23.421,17.015
					c1.12,0.814,2.699,0.561,3.508-0.562L264.771,335.551z"/>
			</g>
			<g>
				<path fill="#494942" d="M221.449,409.748c0.571-1.261,0.003-2.754-1.262-3.317l-26.454-11.778
					c-1.265-0.563-2.766,0.008-3.337,1.27l-1.367,3.064c-0.558,1.267,0.02,2.764,1.284,3.327l26.456,11.781
					c1.264,0.563,2.755-0.013,3.312-1.28L221.449,409.748z"/>
			</g>
			<g>
				<path fill="#494942" d="M596.231,167.532c1.398,0,1.68,0.003,1.68,0.003c1.384,0.013,2.517-1.108,2.517-2.493V136.09
					c0-1.384-1.132-2.527-2.517-2.539c0,0-0.281-0.002-1.68-0.002c-1.4,0-1.678,0.002-1.678,0.002
					c-1.384,0.012-2.517,1.155-2.517,2.539v28.953c0,1.384,1.133,2.506,2.517,2.493
					C594.553,167.535,594.831,167.532,596.231,167.532z"/>
			</g>
			<g>
				<path fill="#494942" d="M952.98,374.418c0.686,1.202,2.228,1.62,3.427,0.927l25.073-14.479c1.199-0.693,1.619-2.243,0.933-3.446
					l-1.675-2.904c-0.697-1.196-2.248-1.609-3.447-0.917l-25.083,14.479c-1.199,0.692-1.609,2.236-0.91,3.432L952.98,374.418z"/>
			</g>
			<g>
				<path fill="#494942" d="M972.382,412.814c0.557,1.267,2.047,1.843,3.312,1.28l26.456-11.781c1.264-0.563,1.843-2.06,1.285-3.327
					l-1.368-3.064c-0.571-1.261-2.072-1.832-3.337-1.269l-26.453,11.779c-1.265,0.563-1.833,2.056-1.262,3.317L972.382,412.814z"/>
			</g>
			<g>
				<path fill="#494942" d="M929.67,338.268c0.81,1.122,2.389,1.375,3.509,0.562l23.42-17.016c1.12-0.814,1.373-2.398,0.564-3.52
					l-1.979-2.716c-0.821-1.115-2.408-1.361-3.528-0.547l-23.417,17.019c-1.12,0.814-1.365,2.392-0.544,3.507L929.67,338.268z"/>
			</g>
			<g>
				<path fill="#494942" d="M998.575,494.642c0.281,1.356,1.618,2.229,2.972,1.941l28.328-6.019
					c1.354-0.288,2.233-1.632,1.954-2.988l-0.699-3.285c-0.293-1.353-1.641-2.224-2.995-1.936l-28.324,6.02
					c-1.354,0.288-2.221,1.63-1.927,2.983L998.575,494.642z"/>
			</g>
			<g>
				<path fill="#494942" d="M987.641,453.037c0.421,1.318,1.843,2.047,3.16,1.62l27.543-8.95c1.316-0.428,2.048-1.857,1.626-3.175
					l-1.037-3.194c-0.434-1.314-1.866-2.04-3.183-1.612l-27.54,8.95c-1.317,0.428-2.039,1.854-1.605,3.168L987.641,453.037z"/>
			</g>
			<g>
				<path fill="#494942" d="M1005.081,537.165c0.135,1.378,1.371,2.386,2.748,2.242l28.797-3.028
					c1.377-0.145,2.392-1.39,2.255-2.768l-0.346-3.336c-0.148-1.376-1.396-2.384-2.773-2.239l-28.794,3.025
					c-1.376,0.145-2.382,1.389-2.233,2.765L1005.081,537.165z"/>
			</g>
			<g>
				<path fill="#494942" d="M902.716,304.745c0.922,1.033,2.518,1.12,3.547,0.193l21.513-19.371
					c1.029-0.926,1.116-2.529,0.193-3.561l-2.248-2.491c-0.932-1.023-2.537-1.102-3.565-0.176l-21.51,19.371
					c-1.029,0.926-1.107,2.521-0.175,3.544L902.716,304.745z"/>
			</g>
			<g>
				<path fill="#494942" d="M872.43,274.212c1.023,0.933,2.617,0.854,3.544-0.175l19.368-21.515
					c0.926-1.029,0.847-2.633-0.177-3.566l-2.492-2.246c-1.032-0.922-2.635-0.835-3.561,0.194l-19.371,21.514
					c-0.926,1.029-0.839,2.624,0.194,3.546L872.43,274.212z"/>
			</g>
			<g>
				<path fill="#494942" d="M724.84,188.071c1.315,0.434,2.74-0.288,3.168-1.605l8.947-27.541c0.427-1.317-0.298-2.749-1.612-3.183
					l-3.19-1.036c-1.319-0.421-2.747,0.311-3.175,1.627l-8.952,27.542c-0.428,1.317,0.301,2.738,1.62,3.159L724.84,188.071z"/>
			</g>
			<g>
				<path fill="#494942" d="M640.859,169.935c1.376,0.148,2.621-0.858,2.765-2.234l3.026-28.792
					c0.145-1.377-0.863-2.624-2.239-2.771l-3.342-0.345c-1.378-0.135-2.623,0.88-2.768,2.257l-3.024,28.793
					c-0.145,1.377,0.864,2.613,2.242,2.748L640.859,169.935z"/>
			</g>
			<g>
				<path fill="#494942" d="M764.936,203.664c1.261,0.57,2.754,0.002,3.317-1.263l11.775-26.456c0.563-1.265-0.009-2.766-1.27-3.336
					l-3.063-1.366c-1.267-0.558-2.764,0.02-3.327,1.284l-11.78,26.455c-0.563,1.264,0.013,2.755,1.28,3.313L764.936,203.664z"/>
			</g>
			<g>
				<path fill="#494942" d="M683.322,176.794c1.353,0.294,2.695-0.574,2.983-1.928l6.024-28.328
					c0.288-1.354-0.583-2.701-1.936-2.994l-3.287-0.693c-1.356-0.281-2.7,0.598-2.988,1.952l-6.018,28.326
					c-0.288,1.354,0.586,2.691,1.942,2.971L683.322,176.794z"/>
			</g>
			<g>
				<path fill="#494942" d="M839.127,246.985c1.114,0.821,2.692,0.576,3.506-0.544l17.017-23.422
					c0.814-1.12,0.568-2.708-0.547-3.529l-2.71-1.974c-1.123-0.81-2.707-0.556-3.521,0.564l-17.02,23.423
					c-0.814,1.12-0.56,2.698,0.564,3.506L839.127,246.985z"/>
			</g>
			<g>
				<path fill="#494942" d="M815.076,191.015l-15.738,27.255c-0.692,1.199-0.275,2.741,0.927,3.427c0,0,2.673,1.525,5.08,2.948
					L815.076,191.015z"/>
			</g>
			<g>
				<path fill="#494942" d="M241.162,371.51c0.698-1.195,0.289-2.739-0.91-3.431l-25.077-14.477c-1.199-0.692-2.75-0.28-3.447,0.916
					l-1.68,2.904c-0.686,1.202-0.266,2.753,0.933,3.445l25.075,14.48c1.199,0.692,2.741,0.275,3.427-0.928L241.162,371.51z"/>
			</g>
			<g>
				<path fill="#494942" d="M637.515,987.291c-1.378,0.134-2.387,1.37-2.242,2.746l3.027,28.796c0.145,1.376,1.39,2.392,2.768,2.257
					l3.338-0.346c1.376-0.148,2.384-1.395,2.24-2.772l-3.026-28.795c-0.145-1.377-1.389-2.381-2.765-2.232L637.515,987.291z"/>
			</g>
			<g>
				<path fill="#494942" d="M800.256,935.187c-1.203,0.685-1.621,2.227-0.928,3.425l14.483,25.077
					c0.692,1.199,2.242,1.618,3.445,0.933l2.902-1.681c1.196-0.697,1.608-2.249,0.916-3.447l-14.48-25.076
					c-0.692-1.199-2.237-1.608-3.432-0.91L800.256,935.187z"/>
			</g>
			<g>
				<path fill="#494942" d="M869.925,884.924c-1.033,0.921-1.12,2.517-0.194,3.546l19.374,21.514
					c0.926,1.029,2.529,1.116,3.561,0.193l2.493-2.245c1.023-0.933,1.102-2.538,0.176-3.566l-19.373-21.512
					c-0.927-1.029-2.521-1.107-3.544-0.174L869.925,884.924z"/>
			</g>
			<g>
				<path fill="#494942" d="M900.46,854.637c-0.932,1.024-0.853,2.619,0.176,3.545l21.514,19.369
					c1.029,0.926,2.633,0.847,3.565-0.177l2.248-2.495c0.923-1.032,0.837-2.634-0.192-3.559l-21.517-19.372
					c-1.029-0.926-2.624-0.839-3.545,0.195L900.46,854.637z"/>
			</g>
			<g>
				<path fill="#494942" d="M680.036,980.784c-1.356,0.28-2.23,1.616-1.942,2.97l6.02,28.328c0.288,1.354,1.632,2.232,2.987,1.951
					l3.286-0.695c1.353-0.293,2.224-1.641,1.936-2.995l-6.021-28.325c-0.288-1.354-1.63-2.222-2.983-1.928L680.036,980.784z"/>
			</g>
			<g>
				<path fill="#494942" d="M721.641,969.85c-1.319,0.421-2.048,1.842-1.62,3.159l8.953,27.539c0.428,1.317,1.857,2.049,3.176,1.627
					l3.188-1.036c1.315-0.434,2.04-1.866,1.612-3.183l-8.95-27.539c-0.428-1.316-1.853-2.038-3.167-1.603L721.641,969.85z"/>
			</g>
			<g>
				<path fill="#494942" d="M761.863,954.587c-1.267,0.557-1.844,2.047-1.281,3.312l11.779,26.457
					c0.563,1.265,2.06,1.843,3.327,1.285l3.064-1.367c1.262-0.569,1.834-2.07,1.271-3.335l-11.777-26.455
					c-0.563-1.265-2.056-1.833-3.317-1.263L761.863,954.587z"/>
			</g>
			<g>
				<path fill="#494942" d="M187.38,619.735c-0.134-1.378-1.371-2.386-2.748-2.242l-28.79,3.026
					c-1.377,0.145-2.393,1.39-2.258,2.768l0.345,3.341c0.147,1.376,1.394,2.384,2.77,2.239l28.794-3.029
					c1.377-0.145,2.382-1.389,2.234-2.766L187.38,619.735z"/>
			</g>
			<g>
				<path fill="#494942" d="M997.88,665.536c-0.294,1.353,0.573,2.695,1.927,2.983l28.328,6.02c1.354,0.288,2.701-0.584,2.993-1.937
					l0.695-3.283c0.281-1.355-0.597-2.7-1.951-2.988l-28.328-6.019c-1.354-0.288-2.691,0.586-2.971,1.942L997.88,665.536z"/>
			</g>
			<g>
				<path fill="#494942" d="M1004.734,623.07c-0.149,1.376,0.855,2.621,2.232,2.765l28.794,3.027
					c1.377,0.145,2.625-0.863,2.775-2.239l0.343-3.337c0.135-1.378-0.881-2.623-2.258-2.768l-28.791-3.026
					c-1.376-0.145-2.613,0.864-2.748,2.242L1004.734,623.07z"/>
			</g>
			<g>
				<path fill="#494942" d="M1041.121,576.769c-0.013-1.384-1.157-2.517-2.541-2.517h-28.946c-1.384,0-2.507,1.132-2.495,2.517
					c0,0,0.002,0.271,0.002,1.671c0,1.402-0.002,1.686-0.002,1.686c-0.012,1.384,1.111,2.517,2.495,2.517h28.946
					c1.384,0,2.528-1.133,2.541-2.517c0,0,0.003-0.283,0.003-1.686C1041.123,577.041,1041.121,576.769,1041.121,576.769z"/>
			</g>
			<g>
				<path fill="#494942" d="M971.009,747.144c-0.57,1.261-0.003,2.754,1.262,3.317l26.456,11.779
					c1.265,0.563,2.766-0.008,3.336-1.27l1.365-3.065c0.558-1.267-0.02-2.764-1.285-3.327L975.687,742.8
					c-1.264-0.563-2.755,0.013-3.312,1.28L971.009,747.144z"/>
			</g>
			<g>
				<path fill="#494942" d="M951.294,785.379c-0.699,1.195-0.29,2.739,0.909,3.431l25.08,14.482c1.199,0.692,2.75,0.28,3.447-0.916
					l1.68-2.907c0.686-1.202,0.267-2.752-0.932-3.444l-25.076-14.48c-1.199-0.692-2.74-0.275-3.426,0.928L951.294,785.379z"/>
			</g>
			<g>
				<path fill="#494942" d="M927.689,821.334c-0.82,1.115-0.575,2.693,0.544,3.507l23.42,17.02c1.12,0.814,2.707,0.567,3.526-0.548
					l1.976-2.715c0.81-1.122,0.557-2.707-0.563-3.52l-23.42-17.014c-1.12-0.814-2.699-0.561-3.51,0.561L927.689,821.334z"/>
			</g>
			<g>
				<path fill="#494942" d="M986.599,707.049c-0.434,1.314,0.288,2.74,1.604,3.167l27.543,8.948
					c1.317,0.428,2.749-0.298,3.183-1.612l1.037-3.192c0.422-1.318-0.31-2.747-1.627-3.175l-27.546-8.948
					c-1.317-0.428-2.738,0.302-3.159,1.62L986.599,707.049z"/>
			</g>
			<g>
				<path fill="#494942" d="M836.407,911.878c-1.123,0.809-1.376,2.388-0.562,3.508l17.017,23.419
					c0.814,1.12,2.398,1.374,3.522,0.565l2.713-1.974c1.115-0.821,1.361-2.409,0.547-3.528l-17.017-23.422
					c-0.814-1.12-2.392-1.365-3.506-0.544L836.407,911.878z"/>
			</g>
			<g>
				<path fill="#494942" d="M320.046,882.679c-1.023-0.933-2.618-0.854-3.545,0.175l-19.372,21.515
					c-0.926,1.029-0.847,2.633,0.177,3.565l2.493,2.242c1.032,0.923,2.634,0.836,3.56-0.192l19.374-21.514
					c0.926-1.029,0.839-2.624-0.194-3.546L320.046,882.679z"/>
			</g>
			<g>
				<path fill="#494942" d="M262.803,818.626c-0.81-1.123-2.388-1.376-3.508-0.562l-23.42,17.016
					c-1.12,0.814-1.374,2.398-0.564,3.521l1.974,2.713c0.82,1.115,2.408,1.362,3.528,0.548l23.423-17.016
					c1.12-0.814,1.364-2.391,0.543-3.506L262.803,818.626z"/>
			</g>
			<g>
				<path fill="#494942" d="M289.757,852.144c-0.921-1.034-2.516-1.121-3.545-0.195l-21.516,19.372
					c-1.029,0.926-1.116,2.529-0.194,3.561l2.247,2.495c0.932,1.023,2.537,1.103,3.565,0.176l21.513-19.372
					c1.029-0.926,1.108-2.521,0.175-3.545L289.757,852.144z"/>
			</g>
			<g>
				<path fill="#494942" d="M239.49,782.477c-0.686-1.202-2.228-1.62-3.427-0.927l-25.073,14.476
					c-1.199,0.692-1.619,2.243-0.934,3.445l1.681,2.906c0.697,1.196,2.248,1.608,3.447,0.916l25.077-14.479
					c1.199-0.692,1.609-2.237,0.91-3.432L239.49,782.477z"/>
			</g>
			<g>
				<path fill="#494942" d="M596.231,989.351c-1.4,0-1.678-0.003-1.678-0.003c-1.384-0.014-2.517,1.106-2.517,2.49v28.95
					c0,1.384,1.133,2.527,2.517,2.54c0,0,0.278,0.003,1.678,0.003c1.398,0,1.68-0.003,1.68-0.003
					c1.384-0.012,2.517-1.155,2.517-2.54v-28.95c0-1.384-1.132-2.505-2.517-2.49C597.911,989.348,597.63,989.351,596.231,989.351z"
					/>
			</g>
			<g>
				<path fill="#494942" d="M220.089,744.086c-0.557-1.267-2.047-1.844-3.312-1.281l-26.454,11.776
					c-1.265,0.563-1.843,2.06-1.285,3.327l1.365,3.065c0.57,1.261,2.071,1.833,3.335,1.27l26.457-11.779
					c1.265-0.563,1.832-2.056,1.262-3.317L220.089,744.086z"/>
			</g>
			<g>
				<path fill="#494942" d="M204.827,703.863c-0.42-1.319-1.842-2.048-3.158-1.621l-27.541,8.946
					c-1.317,0.428-2.049,1.856-1.628,3.175l1.036,3.195c0.434,1.314,1.867,2.04,3.183,1.612l27.538-8.95
					c1.317-0.428,2.038-1.853,1.604-3.168L204.827,703.863z"/>
			</g>
			<g>
				<path fill="#494942" d="M193.89,662.256c-0.28-1.356-1.617-2.23-2.971-1.942l-28.323,6.017
					c-1.354,0.288-2.233,1.632-1.953,2.988l0.695,3.285c0.293,1.353,1.641,2.224,2.995,1.936l28.325-6.023
					c1.354-0.288,2.221-1.63,1.927-2.983L193.89,662.256z"/>
			</g>
			<g>
				<path fill="#494942" d="M509.15,980.09c-1.353-0.294-2.695,0.574-2.983,1.927l-6.025,28.325
					c-0.288,1.354,0.583,2.702,1.936,2.995l3.286,0.696c1.356,0.281,2.7-0.598,2.988-1.952l6.021-28.326
					c0.288-1.354-0.586-2.691-1.942-2.971L509.15,980.09z"/>
			</g>
			<g>
				<path fill="#494942" d="M467.633,968.814c-1.315-0.434-2.74,0.287-3.168,1.604l-8.947,27.542
					c-0.428,1.317,0.298,2.748,1.613,3.182l3.19,1.035c1.319,0.421,2.748-0.312,3.175-1.629l8.946-27.539
					c0.428-1.316-0.301-2.738-1.62-3.159L467.633,968.814z"/>
			</g>
			<g>
				<path fill="#494942" d="M551.613,986.947c-1.376-0.148-2.621,0.857-2.765,2.233l-3.026,28.791
					c-0.145,1.377,0.863,2.624,2.24,2.772l3.334,0.348c1.378,0.135,2.623-0.881,2.768-2.258l3.029-28.794
					c0.145-1.377-0.864-2.613-2.241-2.748L551.613,986.947z"/>
			</g>
			<g>
				<path fill="#494942" d="M353.345,909.902c-1.114-0.821-2.692-0.577-3.505,0.543l-17.018,23.422
					c-0.814,1.12-0.567,2.708,0.548,3.528l2.715,1.976c1.122,0.81,2.707,0.556,3.52-0.564l17.014-23.422
					c0.814-1.12,0.561-2.699-0.562-3.509L353.345,909.902z"/>
			</g>
			<g>
				<path fill="#494942" d="M427.539,953.222c-1.261-0.57-2.754-0.002-3.317,1.262l-11.779,26.455
					c-0.563,1.265,0.009,2.766,1.27,3.336l3.062,1.365c1.267,0.558,2.764-0.02,3.327-1.285l11.781-26.457
					c0.563-1.265-0.013-2.755-1.281-3.311L427.539,953.222z"/>
			</g>
			<g>
				<path fill="#494942" d="M389.3,933.508c-1.196-0.698-2.74-0.288-3.432,0.911l-14.476,25.079
					c-0.692,1.199-0.28,2.751,0.916,3.448l2.905,1.68c1.202,0.686,2.752,0.267,3.444-0.932l14.478-25.079
					c0.692-1.199,0.275-2.741-0.928-3.427L389.3,933.508z"/>
			</g>
		</g>
	</g>
	<g>
		<g>
			<path fill="#31302F" d="M397.516,255.869c1.615,2.797,5.224,3.763,8.02,2.145l8.536-4.937c2.796-1.617,3.762-5.229,2.147-8.026
				l-31.327-54.257c-1.615-2.797-5.225-3.763-8.021-2.146l-8.533,4.934c-2.796,1.617-3.763,5.229-2.148,8.026L397.516,255.869z"/>
		</g>
		<g>
			<path fill="#31302F" d="M591.303,131.252c-3.23,0.006-5.873,2.654-5.873,5.884v62.641c0,3.23,2.643,5.873,5.873,5.873h9.858
				c3.23,0,5.873-2.643,5.873-5.873v-62.685c0-3.23-2.643-5.868-5.873-5.861L591.303,131.252z"/>
		</g>
		<g>
			<path fill="#31302F" d="M262.84,398.437c2.797,1.615,6.409,0.649,8.027-2.147l4.937-8.533c1.618-2.796,0.652-6.405-2.145-8.02
				l-54.265-31.327c-2.797-1.615-6.409-0.648-8.026,2.148l-4.933,8.53c-1.617,2.796-0.651,6.405,2.146,8.021L262.84,398.437z"/>
		</g>
		<g>
			<path fill="#31302F" d="M921.597,396.29c1.617,2.796,5.229,3.762,8.027,2.147l54.259-31.326c2.797-1.615,3.763-5.224,2.147-8.021
				l-4.932-8.532c-1.617-2.796-5.228-3.763-8.025-2.148l-54.266,31.327c-2.797,1.615-3.763,5.224-2.145,8.02L921.597,396.29z"/>
		</g>
		<g>
			<path fill="#31302F" d="M217.576,589.252c3.23,0,5.873-2.643,5.873-5.873v-9.858c0-3.23-2.643-5.873-5.873-5.873h-62.646
				c-3.23,0-5.873,2.643-5.873,5.873v9.858c0,3.23,2.643,5.873,5.873,5.873H217.576z"/>
		</g>
		<g>
			<path fill="#31302F" d="M815.593,188.648c-2.796-1.617-6.406-0.651-8.021,2.146l-31.326,54.257
				c-1.615,2.797-0.649,6.41,2.147,8.028l8.533,4.938c2.796,1.618,6.404,0.653,8.019-2.144l31.33-54.264
				c1.615-2.797,0.649-6.409-2.148-8.026L815.593,188.648z"/>
		</g>
		<g>
			<path fill="#31302F" d="M794.939,901.019c-1.615-2.797-5.225-3.763-8.021-2.147l-8.533,4.933
				c-2.797,1.617-3.763,5.228-2.148,8.025l31.329,54.26c1.615,2.797,5.224,3.763,8.02,2.146l8.532-4.935
				c2.796-1.617,3.762-5.229,2.147-8.026L794.939,901.019z"/>
		</g>
		<g>
			<path fill="#31302F" d="M1043.402,573.521c0-3.23-2.643-5.873-5.873-5.873l-62.64-0.003c-3.23,0-5.873,2.642-5.873,5.872v9.861
				c0,3.23,2.643,5.873,5.873,5.873h62.64c3.23,0,5.873-2.643,5.873-5.873V573.521z"/>
		</g>
		<g>
			<path fill="#31302F" d="M929.62,758.457c-2.797-1.615-6.41-0.649-8.028,2.146l-4.938,8.531c-1.618,2.796-0.653,6.404,2.144,8.019
				l54.263,31.329c2.797,1.615,6.409,0.648,8.025-2.148l4.932-8.53c1.617-2.796,0.651-6.406-2.146-8.021L929.62,758.457z"/>
		</g>
		<g>
			<path fill="#31302F" d="M270.875,760.604c-1.618-2.796-5.23-3.762-8.027-2.147l-54.257,31.326
				c-2.797,1.615-3.763,5.224-2.147,8.021l4.933,8.533c1.617,2.796,5.228,3.763,8.025,2.148l54.265-31.329
				c2.797-1.615,3.762-5.224,2.145-8.02L270.875,760.604z"/>
		</g>
		<g>
			<path fill="#31302F" d="M591.303,951.229c-3.23,0-5.873,2.643-5.873,5.873v62.642c0,3.23,2.643,5.873,5.873,5.873h9.858
				c3.23,0,5.873-2.643,5.873-5.873v-62.642c0-3.23-2.643-5.873-5.873-5.873H591.303z"/>
		</g>
		<g>
			<path fill="#31302F" d="M405.547,898.869c-2.796-1.617-6.405-0.651-8.02,2.146L366.2,955.279
				c-1.615,2.797-0.648,6.409,2.148,8.025l8.535,4.933c2.797,1.616,6.406,0.65,8.021-2.147l31.325-54.259
				c1.615-2.797,0.648-6.409-2.148-8.026L405.547,898.869z"/>
		</g>
	</g>
	<g opacity="0.2">
		<g opacity="0.4">
			<path fill="#31302F" d="M441.275,316.802c3.229-1.789,7.44-0.672,9.357,2.483l189.417,311.604
				c1.917,3.154,0.879,7.259-2.308,9.123l-30.884,18.054c-3.187,1.863-7.291,0.763-9.12-2.443l-181.077-317.51
				c-1.829-3.207-0.683-7.294,2.546-9.083L441.275,316.802z"/>
		</g>
		<g opacity="0.46">
			<path fill="#31302F" d="M441.669,315.595c3.225-1.796,7.432-0.685,9.35,2.469l189.417,311.604
				c1.917,3.154,0.879,7.26-2.308,9.122l-30.884,18.054c-3.187,1.863-7.286,0.761-9.11-2.449L417.62,336.66
				c-1.823-3.21-0.677-7.306,2.548-9.102L441.669,315.595z"/>
		</g>
		<g opacity="0.52">
			<path fill="#31302F" d="M442.063,314.388c3.221-1.804,7.424-0.699,9.342,2.456l189.418,311.604
				c1.917,3.154,0.879,7.259-2.308,9.122l-30.885,18.054c-3.187,1.863-7.282,0.759-9.1-2.454L418.578,335.208
				c-1.818-3.213-0.671-7.317,2.55-9.121L442.063,314.388z"/>
		</g>
		<g opacity="0.58">
			<path fill="#31302F" d="M442.457,313.182c3.216-1.811,7.417-0.712,9.334,2.442l189.418,311.604
				c1.918,3.154,0.879,7.26-2.308,9.122l-30.886,18.054c-3.187,1.863-7.278,0.756-9.091-2.46L419.537,333.756
				c-1.813-3.216-0.664-7.328,2.552-9.14L442.457,313.182z"/>
		</g>
		<g opacity="0.64">
			<path fill="#31302F" d="M442.85,311.975c3.212-1.818,7.409-0.726,9.327,2.429l189.418,311.605
				c1.918,3.154,0.879,7.259-2.308,9.122l-30.886,18.053c-3.187,1.863-7.273,0.754-9.081-2.465L420.496,332.304
				c-1.808-3.219-0.658-7.34,2.554-9.159L442.85,311.975z"/>
		</g>
		<g opacity="0.7">
			<path fill="#31302F" d="M443.244,310.768c3.208-1.826,7.402-0.739,9.319,2.415l189.419,311.605
				c1.918,3.154,0.879,7.259-2.308,9.122l-30.887,18.053c-3.187,1.863-7.269,0.751-9.071-2.471L421.455,330.852
				c-1.802-3.221-0.652-7.351,2.556-9.177L443.244,310.768z"/>
		</g>
		<g opacity="0.76">
			<path fill="#31302F" d="M443.638,309.561c3.204-1.833,7.394-0.753,9.311,2.402l189.419,311.605
				c1.917,3.154,0.879,7.259-2.308,9.122l-30.888,18.053c-3.187,1.863-7.265,0.749-9.062-2.476L422.414,329.4
				c-1.797-3.224-0.646-7.363,2.558-9.196L443.638,309.561z"/>
		</g>
		<g opacity="0.82">
			<path fill="#31302F" d="M444.032,308.354c3.199-1.841,7.386-0.766,9.304,2.388l189.42,311.606
				c1.917,3.154,0.879,7.259-2.308,9.122l-30.888,18.053c-3.187,1.863-7.261,0.746-9.052-2.481L423.373,327.948
				c-1.792-3.228-0.64-7.374,2.56-9.215L444.032,308.354z"/>
		</g>
		<g opacity="0.88">
			<path fill="#31302F" d="M444.426,307.147c3.195-1.848,7.379-0.779,9.296,2.375l189.42,311.606
				c1.917,3.154,0.879,7.259-2.308,9.122l-30.889,18.053c-3.187,1.863-7.256,0.744-9.042-2.487l-176.571-319.32
				c-1.786-3.23-0.633-7.386,2.562-9.234L444.426,307.147z"/>
		</g>
		<g opacity="0.94">
			<path fill="#31302F" d="M444.82,305.94c3.191-1.856,7.371-0.793,9.288,2.361l189.421,311.607
				c1.918,3.154,0.879,7.259-2.308,9.122l-30.889,18.052c-3.187,1.863-7.252,0.741-9.033-2.492L425.29,325.044
				c-1.781-3.233-0.627-7.397,2.564-9.253L444.82,305.94z"/>
		</g>
		<path fill="#31302F" d="M445.214,304.734c3.187-1.863,7.363-0.806,9.281,2.348l189.421,311.607
			c1.917,3.155,0.879,7.259-2.308,9.122l-30.89,18.052c-3.187,1.863-7.248,0.739-9.023-2.498L426.249,323.592
			c-1.776-3.236-0.621-7.409,2.566-9.272L445.214,304.734z"/>
	</g>
	<g opacity="0.2">
		<g>
			<g opacity="0.4">
				<path fill="#31302F" d="M529.118,646.006c-3.232,1.784-7.313,0.586-9.069-2.662l-15.784-29.197
					c-1.756-3.247-0.524-7.32,2.737-9.05l220.603-117.055l220.603-117.055c3.261-1.73,7.364-0.489,9.119,2.759l11.782,21.813
					c1.754,3.248,0.545,7.365-2.687,9.148L747.769,525.357L529.118,646.006z"/>
			</g>
			<g opacity="0.4667">
				<path fill="#31302F" d="M955.941,372.728l11.805,21.863c1.559,2.887-0.48,7.113-3.353,8.699L747.108,524.007l-217.29,120.721
					c-2.873,1.585-7.46,1.084-9.021-1.802l-15.82-29.094c-1.561-2.887-1.036-7.508,1.862-9.046l219.997-116.984l4.577-2.434
					L946.83,370.82C949.729,369.282,954.382,369.841,955.941,372.728z"/>
			</g>
			<g opacity="0.5333">
				<path fill="#31302F" d="M954.556,371.71l11.829,21.914c1.364,2.526-1.506,6.862-4.02,8.249L746.447,522.658L530.519,643.449
					c-2.514,1.387-7.607,1.583-8.973-0.942l-15.856-28.991c-1.365-2.526-1.549-7.696,0.987-9.042l219.391-116.913l4.568-2.435
					l214.816-114.474C947.989,369.306,953.192,369.183,954.556,371.71z"/>
			</g>
			<g opacity="0.6">
				<path fill="#31302F" d="M953.172,370.691l11.852,21.964c1.169,2.165-2.532,6.611-4.686,7.8L745.786,521.308L531.219,642.17
					c-2.155,1.189-7.754,2.082-8.924-0.083l-15.892-28.888c-1.17-2.165-2.061-7.885,0.113-9.038l218.785-116.842l4.56-2.435
					l214.215-114.401C946.249,369.33,952.002,368.525,953.172,370.691z"/>
			</g>
			<g opacity="0.6667">
				<path fill="#31302F" d="M951.787,369.672l11.875,22.015c0.975,1.804-3.557,6.36-5.353,7.351L745.125,519.958L531.92,640.892
					c-1.796,0.991-7.901,2.581-8.877,0.777l-15.927-28.786c-0.975-1.804-2.573-8.073-0.762-9.034l218.18-116.771l4.551-2.436
					l213.613-114.327C944.51,369.354,950.812,367.867,951.787,369.672z"/>
			</g>
			<g opacity="0.7333">
				<path fill="#31302F" d="M950.402,368.653l11.899,22.066c0.78,1.444-4.583,6.109-6.019,6.901L744.464,518.609L532.62,639.613
					c-1.437,0.793-8.048,3.08-8.829,1.637l-15.963-28.683c-0.78-1.443-3.086-8.261-1.637-9.03l217.574-116.7l4.543-2.437
					l213.012-114.253C942.77,369.378,949.622,367.209,950.402,368.653z"/>
			</g>
			<g opacity="0.8">
				<path fill="#31302F" d="M949.017,367.634l11.922,22.116c0.585,1.083-5.608,5.857-6.686,6.452l-210.45,121.057L533.321,638.335
					c-1.077,0.595-8.195,3.579-8.78,2.496l-15.999-28.58c-0.585-1.083-3.598-8.45-2.511-9.026l216.968-116.629l4.534-2.437
					l212.411-114.179C941.031,369.402,948.432,366.551,949.017,367.634z"/>
			</g>
			<g opacity="0.8667">
				<path fill="#31302F" d="M947.632,366.615l11.946,22.167c0.39,0.722-6.634,5.606-7.352,6.002L743.142,515.909L534.021,637.056
					c-0.718,0.396-8.342,4.078-8.732,3.356l-16.035-28.478c-0.39-0.722-4.111-8.638-3.386-9.022L722.23,486.354l4.526-2.438
					l211.81-114.105C939.291,369.426,947.242,365.893,947.632,366.615z"/>
			</g>
			<g opacity="0.9333">
				<path fill="#31302F" d="M946.247,365.596l11.969,22.218c0.195,0.361-7.66,5.355-8.019,5.553L742.481,514.56l-207.76,121.218
					c-0.359,0.198-8.489,4.576-8.684,4.216l-16.07-28.375c-0.195-0.361-4.623-8.826-4.261-9.018l215.756-116.487l4.517-2.439
					l211.209-114.032C937.551,369.45,946.052,365.235,946.247,365.596z"/>
			</g>
			<polygon fill="#31302F" points="526.786,639.574 505.544,602.287 725.204,483.432 944.862,364.577 956.855,386.845 
				741.82,513.21 			"/>
		</g>
	</g>
	<g>
		<g>
			
				<linearGradient id="SVGID_4_" gradientUnits="userSpaceOnUse" x1="-2416.8445" y1="9008.6084" x2="-2414.3911" y2="7823.4341" gradientTransform="matrix(0.4832 0.8755 -0.8755 0.4832 9395.2627 -1522.734)">
				<stop  offset="0.0727" style="stop-color:#31302F"/>
				<stop  offset="0.1311" style="stop-color:#373635"/>
				<stop  offset="0.3204" style="stop-color:#454542"/>
				<stop  offset="0.547" style="stop-color:#4D4D4A"/>
				<stop  offset="0.9073" style="stop-color:#50504C"/>
			</linearGradient>
			<path fill="url(#SVGID_4_)" d="M529.954,633.995c-3.194,1.85-7.267,0.72-9.051-2.512l-13.781-24.973
				c-1.784-3.232-0.588-7.316,2.658-9.075l431.972-234.19c3.245-1.759,7.36-0.554,9.143,2.678l6.889,12.485
				c1.783,3.232,0.629,7.39-2.565,9.241L529.954,633.995z"/>
			<g opacity="0.3">
				<path fill="#31302F" d="M944.948,365.791c1.259,0,2.412,0.671,3.008,1.752l6.889,12.485c0.897,1.626,0.297,3.786-1.309,4.716
					L528.272,631.091c-0.501,0.291-1.044,0.438-1.613,0.438c-1.17,0-2.25-0.639-2.817-1.667l-13.781-24.974
					c-0.427-0.774-0.525-1.671-0.275-2.525c0.25-0.854,0.816-1.557,1.594-1.978l431.972-234.19
					C943.846,365.926,944.383,365.791,944.948,365.791L944.948,365.791z M944.948,362.435c-1.085,0-2.183,0.26-3.196,0.809
					L509.78,597.435c-3.245,1.759-4.441,5.843-2.658,9.075l13.781,24.974c1.202,2.178,3.443,3.401,5.755,3.401
					c1.119,0,2.254-0.286,3.296-0.89l425.264-246.347c3.194-1.85,4.349-6.009,2.565-9.241l-6.889-12.485
					C949.668,363.699,947.339,362.435,944.948,362.435L944.948,362.435z"/>
			</g>
		</g>
	</g>
	
		<linearGradient id="SVGID_5_" gradientUnits="userSpaceOnUse" x1="7427.1299" y1="-2214.9514" x2="7805.1768" y2="-2214.9514" gradientTransform="matrix(-0.5046 -0.8633 0.8633 -0.5046 6286.0879 5930.9976)">
		<stop  offset="0.0727" style="stop-color:#31302F"/>
		<stop  offset="0.1311" style="stop-color:#373635"/>
		<stop  offset="0.3204" style="stop-color:#454542"/>
		<stop  offset="0.547" style="stop-color:#4D4D4A"/>
		<stop  offset="0.9073" style="stop-color:#50504C"/>
	</linearGradient>
	<path fill="url(#SVGID_5_)" d="M445.214,304.734c3.187-1.863,7.363-0.806,9.281,2.348l189.421,311.607
		c1.917,3.155,0.879,7.259-2.308,9.122l-30.89,18.052c-3.187,1.863-7.248,0.739-9.023-2.498L426.249,323.592
		c-1.776-3.236-0.621-7.409,2.566-9.272L445.214,304.734z"/>
	<path opacity="0.4" fill="#31302F" d="M560.996,569.71c0.278,0.836,19.295,34.958,19.295,34.958l-3.076,2.235l-19.574-35.236
		L560.996,569.71z"/>
	<path opacity="0.2" fill="#804040" d="M516.172,694.018c11.509,6.147,25.826,1.802,31.973-9.704
		c5.517-10.326,2.58-22.911-6.4-29.83L776.959,214.21l-8.174-6.243L533.569,648.241c-9.489-1.075-21.586,3.478-27.101,13.809
		C500.319,673.556,504.669,687.87,516.172,694.018z"/>
	<path fill="#AE1D1D" d="M526.631,698.245c11.509,6.151,25.825,1.804,31.971-9.703c5.521-10.328,2.579-22.915-6.398-29.828
		L787.42,218.44l-6.928-3.702L545.279,655.012c-10.742-3.616-22.836,0.937-28.352,11.263
		C510.777,677.782,515.126,692.1,526.631,698.245z"/>
	<g>
		<path fill="#AE1D1D" d="M578.613,576.141c0-8.337,6.763-15.101,15.104-15.101c8.338,0,15.099,6.765,15.099,15.101
			c0,8.341-6.761,15.104-15.099,15.104C585.376,591.245,578.613,584.482,578.613,576.141z"/>
		<g>
			<path fill="#DBDBDB" d="M593.717,582.015c-3.239,0-5.875-2.635-5.875-5.874c0-3.238,2.636-5.873,5.875-5.873
				c3.237,0,5.87,2.635,5.87,5.873C599.587,579.38,596.954,582.015,593.717,582.015z"/>
			<path fill="#999999" d="M593.717,571.527c2.543,0,4.612,2.07,4.612,4.614c0,2.545-2.069,4.615-4.612,4.615
				c-2.546,0-4.617-2.069-4.617-4.615C589.1,573.596,591.172,571.527,593.717,571.527L593.717,571.527z M593.717,569.01
				c-3.94,0-7.134,3.194-7.134,7.131c0,3.94,3.194,7.132,7.134,7.132c3.934,0,7.129-3.192,7.129-7.132
				C600.846,572.204,597.652,569.01,593.717,569.01L593.717,569.01z"/>
		</g>
	</g>
	<g>
		
			<linearGradient id="SVGID_6_" gradientUnits="userSpaceOnUse" x1="-3041.2983" y1="556.2549" x2="-3021.293" y2="994.2565" gradientTransform="matrix(-1 0 0 1 -2076.8203 0)">
			<stop  offset="0" style="stop-color:#6F6F6F"/>
			<stop  offset="0.0569" style="stop-color:#7E7E7E"/>
			<stop  offset="0.273" style="stop-color:#B3B3B3"/>
			<stop  offset="0.4606" style="stop-color:#D9D9D9"/>
			<stop  offset="0.6106" style="stop-color:#F0F0F0"/>
			<stop  offset="0.7041" style="stop-color:#F9F9F9"/>
		</linearGradient>
		<path opacity="0.4" fill="url(#SVGID_6_)" d="M892.039,870.722c38.32-38.319,68.404-82.936,89.417-132.617
			c21.754-51.428,32.776-106.062,32.776-162.387c0-5.441-0.31-12.412-0.753-19.563c12.558-2.721,22.961-5.464,30.835-7.74
			c0.542,9.056,0.831,18.158,0.831,27.303c0,60.491-11.851,119.175-35.218,174.422c-22.57,53.363-54.882,101.285-96.029,142.437
			c-13.26,13.256-27.228,25.579-41.84,36.969c-2.02-11.644-3.703-23.584-5.034-35.773
			C875.627,886.451,883.979,878.78,892.039,870.722z"/>
		
			<radialGradient id="SVGID_7_" cx="-55.1773" cy="1033.4335" r="381.9581" gradientTransform="matrix(0.8893 0 0 0.8893 643.9774 102.765)" gradientUnits="userSpaceOnUse">
			<stop  offset="0" style="stop-color:#5C5C5C"/>
			<stop  offset="0.0791" style="stop-color:#666666"/>
			<stop  offset="0.2158" style="stop-color:#828282"/>
			<stop  offset="0.3938" style="stop-color:#B0B0B0"/>
			<stop  offset="0.604" style="stop-color:#EFEFEF"/>
			<stop  offset="0.6369" style="stop-color:#F9F9F9"/>
		</radialGradient>
		<path opacity="0.3" fill="url(#SVGID_7_)" d="M851.35,904.844c-28.745,22.458-60.221,40.984-94.05,55.293
			c-51.426,21.748-106.062,32.781-162.391,32.781c-56.329,0-110.963-11.033-162.387-32.781
			c-33.829-14.309-65.309-32.835-94.053-55.293c-9.248,6.046-17.816,12.421-25.613,19.093c32.64,26.507,68.679,48.197,107.63,64.669
			c55.245,23.367,113.931,35.218,174.424,35.218c60.497,0,119.18-11.85,174.425-35.218c38.955-16.473,74.992-38.162,107.627-64.669
			C869.166,917.262,860.599,910.89,851.35,904.844z"/>
	</g>
</g>
</svg>
