<?xml version="1.0" standalone="no"?>
<svg version="1.1" id="downloadSvg" xmlns="http://www.w3.org/2000/svg" xmlns:xlink="http://www.w3.org/1999/xlink" x="0px" y="0px" width="512" height="512" viewBox="0 0 1200 1200" enable-background="new 0 0 1200 1200" xml:space="preserve">
<path fill="#575756" d="M935.25,246.477c-10.14-14.215-107.359-139.743-322.078-139.743S215.954,278.837,215.954,550.289
	c0,271.544,229.026,534.778,512.631,534.778c81.113,0,160.042-20.207,194.439-38.376V817.69l-206.665-2.038l95.138-60.785
	l332.499,2.13l-54.866,56.69v259.275c0,0-139.763,77.037-433.508,77.037S56.004,1016.253,56.004,602.972
	C56.004,189.738,426.689,50,641.505,50c214.719,0,409.25,87.031,441.561,119.508c0,6.089-111.338,111.41-133.698,129.628
	c-1.989,0-44.537-1.989-44.537-1.989C933.164,252.566,935.25,246.477,935.25,246.477z" style="fill: rgb(0, 109, 154);"/>
</svg>