<?xml version="1.0" encoding="utf-8"?>
<!-- Generator: Adobe Illustrator 17.0.0, SVG Export Plug-In . SVG Version: 6.00 Build 0)  -->
<!DOCTYPE svg PUBLIC "-//W3C//DTD SVG 1.1//EN" "http://www.w3.org/Graphics/SVG/1.1/DTD/svg11.dtd">
<svg version="1.1" id="Layer_1" xmlns="http://www.w3.org/2000/svg" xmlns:xlink="http://www.w3.org/1999/xlink" x="0px" y="0px"
	 width="1200px" height="1200px" viewBox="0 0 1200 1200" enable-background="new 0 0 1200 1200" xml:space="preserve">
<g>
	<g>
		<g>
			<path fill="#006D9A" d="M870.186,698.083c-49.425,36.354-151.672,61.429-270.201,61.429c-118.5,0-220.769-25.075-270.165-61.429
				c-20.108,14.827-31.689,31.453-31.689,49.053c0,61.02,135.126,110.495,301.854,110.495c166.749,0,301.882-49.475,301.882-110.495
				C901.868,729.536,890.28,712.91,870.186,698.083z"/>
			<path fill="#003E59" d="M870.186,550.812c-49.425,36.333-151.672,61.414-270.201,61.414c-118.5,0-220.769-25.081-270.165-61.414
				c-20.108,14.777-31.689,31.402-31.689,49.023c0,61.006,135.126,110.474,301.854,110.474
				c166.749,0,301.882-49.468,301.882-110.474C901.868,582.214,890.28,565.588,870.186,550.812z"/>
			<path fill="#006D9A" d="M599.986,563.037c166.749,0,301.882-49.461,301.882-110.445c0-61.02-135.133-110.474-301.882-110.474
				c-166.728,0-301.854,49.454-301.854,110.474C298.132,513.576,433.258,563.037,599.986,563.037z"/>
		</g>
	</g>
	<path fill="#006D9A" d="M600,1149.997c-303.273,0-550-246.724-550-549.997S296.727,50.003,600,50.003
		c303.272,0,550,246.724,550,549.997S903.273,1149.997,600,1149.997z M600,82.996C314.926,82.996,83,314.923,83,600
		S314.926,1117.004,600,1117.004c285.077,0,517.006-231.926,517.006-517.004S885.078,82.996,600,82.996z"/>
</g>
</svg>
