<?xml version="1.0" standalone="no"?>
<svg version="1.1" id="downloadSvg" xmlns="http://www.w3.org/2000/svg" xmlns:xlink="http://www.w3.org/1999/xlink" x="0px" y="0px" viewBox="0 0 1200 1200" enable-background="new 0 0 1200 1200" xml:space="preserve" height="512" width="512">
<g>
	<g>
		<path fill="#5FBAA7" d="M1033.329,539.75l116.67-105.332c-11.162-37.125-25.844-72.707-43.897-106.248l-164.008,8.376
			l-78.8-75.533l8.535-167.116C838.288,75.844,802.706,61.162,765.581,50L651.645,176.202H548.355L434.419,50
			c-37.125,11.162-72.709,25.844-106.251,43.897l8.535,167.119l-78.798,75.531l-164.01-8.376
			c-18.053,33.541-32.732,69.124-43.895,106.248l116.67,105.332l-3.431,123.597L50.001,765.58
			c11.162,37.125,25.841,72.707,43.895,106.248l145.575-7.434l95.976,99.243l-7.275,142.466
			c33.541,18.053,69.124,32.735,106.248,43.897l93.629-103.709h143.904L765.581,1150c37.125-11.162,72.707-25.844,106.248-43.897
			l-7.275-142.466l95.976-99.243l145.572,7.434c18.053-33.541,32.735-69.124,43.897-106.248L1036.76,663.347L1033.329,539.75z
			 M600,913.267c-173.013,0-313.265-140.255-313.265-313.268c0-173.011,140.252-313.265,313.265-313.265
			s313.265,140.255,313.265,313.265C913.265,773.012,773.013,913.267,600,913.267z" style="fill: rgb(0, 109, 154);"/>
	</g>
	<g>
		<path fill="#2B2B2B" d="M611.537,767.72c-0.494,0-0.987,0-1.481-0.019c-13.364-0.513-25.514-7.84-32.196-19.42l-95.715-165.764
			c-10.745-18.585-4.366-42.371,14.238-53.116c18.528-10.726,42.333-4.385,53.116,14.238l64.81,112.249l325.225-475.726
			c12.073-17.693,36.258-22.249,54.027-10.156c17.731,12.13,22.287,36.315,10.137,54.046L643.619,750.787
			C636.367,761.399,624.331,767.72,611.537,767.72z"/>
	</g>
</g>
</svg>