<?xml version="1.0" standalone="no"?>
<svg version="1.1" id="downloadSvg" xmlns="http://www.w3.org/2000/svg" xmlns:xlink="http://www.w3.org/1999/xlink" x="0px" y="0px" viewBox="0 0 1200 1200" enable-background="new 0 0 1200 1200" xml:space="preserve" height="512" width="512">
<g>
	<path fill="#5FBAA7" d="M1150,599.996c0-225.843-166.238-413.069-382.684-447.09c-10.638-28.72-38.04-49.298-70.46-49.298&#10;&#9;&#9;c-41.624,0-75.369,33.743-75.369,75.369c0,41.624,33.745,75.369,75.369,75.369c27.708,0,51.664-15.12,64.759-37.397&#10;&#9;&#9;c183.654,30.984,324.143,190.72,324.143,383.047c0,192.339-140.487,352.076-324.139,383.061&#10;&#9;&#9;c-13.094-22.282-37.05-37.403-64.763-37.403c-41.624,0-75.369,33.743-75.369,75.369c0,41.624,33.745,75.369,75.369,75.369&#10;&#9;&#9;c32.418,0,59.818-20.576,70.458-49.292C983.76,1013.077,1150,825.839,1150,599.996z" style="fill: rgb(21, 92, 143);"/>
	<g>
		<path fill="#2B2B2B" d="M726.899,588.076c-6.242-16.61-24.844-25.001-41.344-18.758&#10;&#9;&#9;&#9;c-14.996,5.631-345.324,131.945-544.027,368.386c-5.217-1.143-10.599-1.833-16.159-1.833C83.743,935.87,50,969.615,50,1011.24&#10;&#9;&#9;&#9;c0,41.624,33.743,75.369,75.369,75.369c41.624,0,75.367-33.745,75.367-75.369c0-12.3-3.227-23.742-8.452-33.998&#10;&#9;&#9;&#9;c188.671-222.516,512.39-346.479,515.888-347.791C724.766,623.193,733.141,604.67,726.899,588.076z"/>
		<path fill="#2B2B2B" d="M828.91,521.684l-146.931-66.298c-16.249-7.278-35.164-0.047-42.473,16.076&#10;&#9;&#9;&#9;c-7.309,16.171-0.125,35.196,16.061,42.489l117.664,53.091l-53.076,117.664c-7.309,16.171-0.125,35.196,16.061,42.489&#10;&#9;&#9;&#9;c4.298,1.929,8.783,2.855,13.175,2.855c12.265-0.016,23.966-7.042,29.298-18.931l66.282-146.947&#10;&#9;&#9;&#9;C852.28,548.003,845.096,528.977,828.91,521.684z"/>
	</g>
</g>
</svg>