<?xml version="1.0" standalone="no"?>
<svg version="1.1" id="downloadSvg" xmlns="http://www.w3.org/2000/svg" xmlns:xlink="http://www.w3.org/1999/xlink" x="0px" y="0px" viewBox="0 0 1200 1200" enable-background="new 0 0 1200 1200" xml:space="preserve" height="512" width="512">
<g>
	<g>
		<g>
			<path fill="#FFFFFF" d="M1038.637,1019.288c0,0-49.148-730.815-84.087-777.829s-204.6-177.657-204.6-177.657
				s-445.515,17.532-541.977,50.545c-96.459,33.017-9.905,840.592-30.524,1020.172
				C177.448,1134.519,1003.014,1159.414,1038.637,1019.288z"/>
		</g>
		<g>
			<path fill="#315934" d="M318.43,1150c-83.615,0-140.323-1.653-141.401-1.685c-3.859-0.117-7.493-1.846-10.017-4.766
				c-2.529-2.92-3.715-6.765-3.275-10.601c7.079-61.649,1.051-204.659-5.332-356.069c-6.046-143.45-12.897-306.045-10.255-432.905
				c4.133-198.568,30.299-234.104,55.351-242.68c97.253-33.286,527.63-50.563,545.904-51.281c3.203-0.063,6.397,0.889,8.962,2.857
				c6.99,5.382,171.588,132.363,207.26,180.361c6.608,8.89,24.163,32.514,57.813,413.558
				c16.477,186.569,28.844,369.747,28.965,371.575c0.099,1.455-0.036,2.915-0.395,4.326c-9.662,38.016-62.04,66.55-160.115,87.223
				c-73.598,15.516-173.349,26.723-296.472,33.318C495.229,1148.599,395.419,1150,318.43,1150z M192.544,1121.094
				c50.832,1.141,225.632,4.002,401.551-5.431c361.756-19.388,422.237-73.517,430.606-97.9
				c-18.921-280.647-57.539-735.258-81.23-768.077C912.955,208.632,771.091,97.683,745.482,77.796
				c-49.3,2.066-444.998,19.478-533.043,49.61c-7.605,2.601-32.72,25.951-36.7,217.142c-2.619,125.994,4.214,288.121,10.242,431.167
				C192.202,923.33,197.638,1052.275,192.544,1121.094z" style="fill: rgb(0, 0, 0);"/>
		</g>
	</g>
	<g>
		<g>
			<path fill="#DAFBEB" d="M954.549,241.459l3.297,24.212c0,0-156.89,50.181-170.73,38.691
				c-13.845-11.504-13.876-67.112-13.876-67.112L954.549,241.459z" style="fill: rgb(0, 109, 154);"/>
		</g>
	</g>
	<g>
		<g>
			<path fill="#DAFBEB" d="M954.549,241.459c0,0-165.349-0.647-187.971,3.508c-22.608,4.164-16.63-181.165-16.63-181.165
				L954.549,241.459z" style="fill: rgb(0, 109, 154);"/>
		</g>
		<g>
			<path fill="#315934" d="M765.795,258.845c-4.29,0-8.423-1.563-11.891-4.546c-7.776-6.693-16.23-20.956-18.121-106.062
				c-0.957-42.926,0.359-84.464,0.373-84.878c0.171-5.323,3.387-10.071,8.27-12.2c4.887-2.143,10.552-1.262,14.568,2.224
				l204.6,177.657c4.357,3.782,5.898,9.878,3.872,15.278c-2.026,5.382-7.174,8.944-12.919,8.944c-0.018,0-0.036,0-0.054,0
				c-65.962-0.247-169.751,0.4-185.424,3.279C767.974,258.741,766.878,258.845,765.795,258.845z M763.086,93.487
				c-0.768,59.066,1.752,119.368,7.893,137.062c26.584-2.39,100.573-2.87,146.581-2.929L763.086,93.487z" style="fill: rgb(0, 0, 0);"/>
		</g>
	</g>
	<g>
		<g>
			<polygon fill="#DAFBEB" points="589.69,300.858 235.593,326.319 239.169,390.331 617.747,367.565 			" style="fill: rgb(0, 109, 154);"/>
		</g>
	</g>
	<g>
		<g>
			<polygon fill="#DAFBEB" points="871.626,415.976 252.676,460.951 256.922,519.788 880.803,481.817 			" style="fill: rgb(0, 109, 154);"/>
		</g>
	</g>
	<g>
		<g>
			<polygon fill="#DAFBEB" points="878.602,552.603 259.653,597.573 263.889,656.406 887.766,618.439 			" style="fill: rgb(0, 109, 154);"/>
		</g>
	</g>
	<g>
		<g>
			<polygon fill="#DAFBEB" points="890.479,681.992 271.53,726.976 275.766,785.804 899.643,747.837 			" style="fill: rgb(0, 109, 154);"/>
		</g>
	</g>
	<g>
		<g>
			<polygon fill="#DAFBEB" points="898.206,818.111 541.44,848.756 551.723,1018.247 920.167,986.321 			" style="fill: rgb(0, 109, 154);"/>
		</g>
	</g>
</g>
</svg>