<?xml version="1.0" standalone="no"?>
<svg version="1.1" id="downloadSvg" xmlns="http://www.w3.org/2000/svg" xmlns:xlink="http://www.w3.org/1999/xlink" x="0px" y="0px" viewBox="0 0 1200 1200" enable-background="new 0 0 1200 1200" xml:space="preserve" height="512" width="512">
<g>
	<g>
		<path fill="#5FBAA7" d="M778.519,856.44H528.692c-47.634,0-86.249-38.615-86.249-86.249V520.365
			c0-47.634,38.615-86.249,86.249-86.249h249.826c47.634,0,86.249,38.615,86.249,86.249v249.826
			C864.768,817.825,826.153,856.44,778.519,856.44z" style="fill: rgb(0, 109, 154);"/>
	</g>
	<g>
		<path fill="#2B2B2B" d="M756.26,288.138H441.936c-80.209,0-145.463,65.253-145.463,145.463v314.324
			c0,80.209,65.253,145.463,145.463,145.463H756.26c80.209,0,145.463-65.253,145.463-145.463V433.601
			C901.723,353.392,836.469,288.138,756.26,288.138z M827.828,747.925c0,39.455-32.113,71.568-71.568,71.568H441.936
			c-39.455,0-71.568-32.113-71.568-71.568V433.601c0-39.455,32.113-71.568,71.568-71.568H756.26
			c39.455,0,71.568,32.113,71.568,71.568V747.925z"/>
		<path fill="#2B2B2B" d="M987.94,461.456h125.113c20.404,0,36.948-16.543,36.948-36.948s-16.543-36.948-36.948-36.948H987.94
			c-20.404,0-36.948,16.543-36.948,36.948S967.536,461.456,987.94,461.456z"/>
		<path fill="#2B2B2B" d="M1113.052,504.555H987.94c-20.404,0-36.948,16.543-36.948,36.948s16.543,36.948,36.948,36.948h125.113
			c20.404,0,36.948-16.543,36.948-36.948S1133.457,504.555,1113.052,504.555z"/>
		<path fill="#2B2B2B" d="M1113.052,621.55H987.94c-20.404,0-36.948,16.543-36.948,36.948s16.543,36.948,36.948,36.948h125.113
			c20.404,0,36.948-16.543,36.948-36.948S1133.457,621.55,1113.052,621.55z"/>
		<path fill="#2B2B2B" d="M1113.052,738.562H987.94c-20.404,0-36.948,16.543-36.948,36.948s16.543,36.948,36.948,36.948h125.113
			c20.404,0,36.948-16.543,36.948-36.948S1133.457,738.562,1113.052,738.562z"/>
		<path fill="#2B2B2B" d="M212.042,387.561H86.948C66.543,387.561,50,404.104,50,424.508s16.543,36.948,36.948,36.948h125.095
			c20.404,0,36.947-16.543,36.947-36.948S232.446,387.561,212.042,387.561z"/>
		<path fill="#2B2B2B" d="M212.042,504.555H86.948C66.543,504.555,50,521.099,50,541.503s16.543,36.948,36.948,36.948h125.095
			c20.404,0,36.947-16.543,36.947-36.948S232.446,504.555,212.042,504.555z"/>
		<path fill="#2B2B2B" d="M212.042,621.55H86.948C66.543,621.55,50,638.093,50,658.497s16.543,36.948,36.948,36.948h125.095
			c20.404,0,36.947-16.543,36.947-36.948S232.446,621.55,212.042,621.55z"/>
		<path fill="#2B2B2B" d="M212.042,738.562H86.948C66.543,738.562,50,755.106,50,775.51s16.543,36.948,36.948,36.948h125.095
			c20.404,0,36.947-16.543,36.947-36.948S232.446,738.562,212.042,738.562z"/>
		<path fill="#2B2B2B" d="M775.492,951.01c-20.404,0-36.948,16.543-36.948,36.948v125.095c0,20.404,16.543,36.948,36.948,36.948
			s36.947-16.543,36.947-36.948V987.958C812.439,967.554,795.896,951.01,775.492,951.01z"/>
		<path fill="#2B2B2B" d="M658.497,951.01c-20.404,0-36.948,16.543-36.948,36.948v125.095c0,20.404,16.543,36.948,36.948,36.948
			s36.948-16.543,36.948-36.948V987.958C695.445,967.554,678.901,951.01,658.497,951.01z"/>
		<path fill="#2B2B2B" d="M541.503,951.01c-20.404,0-36.948,16.543-36.948,36.948v125.095c0,20.404,16.543,36.948,36.948,36.948
			s36.948-16.543,36.948-36.948V987.958C578.45,967.554,561.907,951.01,541.503,951.01z"/>
		<path fill="#2B2B2B" d="M424.49,951.01c-20.404,0-36.948,16.543-36.948,36.948v125.095c0,20.404,16.543,36.948,36.948,36.948
			s36.947-16.543,36.947-36.948V987.958C461.438,967.554,444.894,951.01,424.49,951.01z"/>
		<path fill="#2B2B2B" d="M775.492,249.008c20.404,0,36.947-16.543,36.947-36.947V86.948c0-20.404-16.543-36.948-36.947-36.948
			s-36.948,16.543-36.948,36.948V212.06C738.544,232.464,755.088,249.008,775.492,249.008z"/>
		<path fill="#2B2B2B" d="M658.497,249.008c20.404,0,36.948-16.543,36.948-36.947V86.948c0-20.404-16.543-36.948-36.948-36.948
			S621.55,66.543,621.55,86.948V212.06C621.55,232.464,638.093,249.008,658.497,249.008z"/>
		<path fill="#2B2B2B" d="M541.503,249.008c20.404,0,36.948-16.543,36.948-36.947V86.948C578.45,66.543,561.907,50,541.503,50
			s-36.948,16.543-36.948,36.948V212.06C504.555,232.464,521.099,249.008,541.503,249.008z"/>
		<path fill="#2B2B2B" d="M424.49,249.008c20.404,0,36.947-16.543,36.947-36.947V86.948C461.438,66.543,444.894,50,424.49,50
			s-36.948,16.543-36.948,36.948V212.06C387.543,232.464,404.086,249.008,424.49,249.008z"/>
	</g>
</g>
</svg>