<?xml version="1.0" standalone="no"?>
<svg version="1.1" id="downloadSvg" xmlns="http://www.w3.org/2000/svg" xmlns:xlink="http://www.w3.org/1999/xlink" x="0px" y="0px" width="512" height="512" viewBox="0 0 1200 1200" enable-background="new 0 0 1200 1200" xml:space="preserve">
<g>
	<path fill="#006A96" d="M601.2,617.477v-5.769c0-1.338-1.084-2.42-2.422-2.42c-1.336,0-2.42,1.082-2.42,2.42v5.769h-3.832v16.053&#10;&#9;&#9;h0.359c0.163,2.224,1.541,4.101,3.473,4.987v169.794c0,3.408-0.906,5.979-2.69,7.642c-2.811,2.618-7.059,2.347-7.287,2.336h-7.575&#10;&#9;&#9;c-0.867-1.978-2.774-3.394-5.034-3.561v-0.359h-16.052v12.581h16.052v-0.359c2.221-0.163,4.097-1.537,4.983-3.464l7.427-0.003&#10;&#9;&#9;c0.052,0.004,0.321,0.025,0.757,0.025c1.806,0,6.441-0.346,9.984-3.611c2.839-2.615,4.278-6.394,4.278-11.227V638.557&#10;&#9;&#9;c1.972-0.87,3.382-2.772,3.547-5.026h0.359v-16.053H601.2z" style="fill: rgb(21, 92, 143);"/>
	<path fill="#006A96" d="M672.087,633.158h0.361v-16.054h-3.834c-0.104-1.243-1.131-2.22-2.399-2.22s-2.297,0.977-2.401,2.22h-3.948&#10;&#9;&#9;v16.054h0.359c0.166,2.261,1.586,4.171,3.568,5.036V858.33c-1.982,0.866-3.402,2.775-3.568,5.038h-0.359v16.052h3.927v3.828&#10;&#9;&#9;c0,1.338,1.084,2.422,2.422,2.422c1.336,0,2.42-1.084,2.42-2.422v-3.828h3.813v-16.052h-0.361&#10;&#9;&#9;c-0.163-2.217-1.532-4.088-3.452-4.977V638.135C670.555,637.244,671.924,635.374,672.087,633.158z" style="fill: rgb(21, 92, 143);"/>
	<path fill="#006A96" d="M313.487,614.044c-0.428-0.383-0.988-0.624-1.61-0.624s-1.182,0.241-1.61,0.624h-5.154v16.054h0.359&#10;&#9;&#9;c0.177,2.417,1.787,4.425,3.986,5.191l0.002,18.022c0.007,0.062,0.382,6.551-3.758,10.973c-2.582,2.753-6.459,4.152-11.528,4.152&#10;&#9;&#9;H170.972v-0.006h-8.642c-6.46,0-11.528,1.915-15.059,5.687c-4.679,4.995-5.083,11.667-5.083,13.773&#10;&#9;&#9;c0,0.401,0.013,0.635,0.018,0.665v101.831c-1.697,0.958-2.886,2.708-3.036,4.76h-0.359v16.054h4.206&#10;&#9;&#9;c0.428,0.383,0.988,0.624,1.609,0.624c0.621,0,1.182-0.241,1.61-0.624h5.155v-16.054h-0.359c-0.177-2.417-1.786-4.423-3.984-5.191&#10;&#9;&#9;l-0.004-101.557c-0.007-0.062-0.382-6.551,3.758-10.973c2.582-2.753,6.459-4.152,11.528-4.152h5.601v0.006h126.244&#10;&#9;&#9;c6.46,0,11.528-1.915,15.059-5.687c4.679-4.995,5.083-11.667,5.083-13.773c0-0.401-0.013-0.636-0.018-0.665v-18.296&#10;&#9;&#9;c1.697-0.958,2.886-2.708,3.036-4.76h0.359v-16.054H313.487z" style="fill: rgb(21, 92, 143);"/>
	<path fill="#006A96" d="M824.043,614.044c0.429-0.383,0.987-0.624,1.61-0.624c0.622,0,1.182,0.241,1.611,0.624h5.154v16.054h-0.359&#10;&#9;&#9;c-0.177,2.417-1.786,4.425-3.987,5.191l-0.002,18.022c-0.007,0.062-0.381,6.551,3.758,10.973c2.582,2.753,6.459,4.152,11.528,4.152&#10;&#9;&#9;h202.8v-0.006h8.641c6.46,0,11.528,1.915,15.059,5.687c4.679,4.995,5.083,11.667,5.083,13.773c0,0.401-0.013,0.635-0.018,0.665&#10;&#9;&#9;v76.133c1.697,0.958,2.885,2.708,3.036,4.76h0.359v16.054h-4.206c-0.429,0.383-0.987,0.624-1.609,0.624s-1.182-0.241-1.611-0.624&#10;&#9;&#9;h-5.154v-16.054h0.359c0.177-2.417,1.786-4.423,3.984-5.191l0.005-75.86c0.007-0.062,0.381-6.551-3.758-10.973&#10;&#9;&#9;c-2.582-2.753-6.459-4.152-11.528-4.152h-5.6v0.006H843.356c-6.46,0-11.528-1.915-15.059-5.687&#10;&#9;&#9;c-4.679-4.995-5.082-11.667-5.082-13.773c0-0.401,0.013-0.636,0.018-0.665v-18.296c-1.697-0.958-2.885-2.708-3.036-4.76h-0.359&#10;&#9;&#9;v-16.054H824.043z" style="fill: rgb(21, 92, 143);"/>
	<g>
		<path fill="#006A96" d="M714.67,813.668c-2.652,0-6.483-0.552-9.737-3.174c-3.923-3.16-5.909-8.356-5.909-15.446V606.689&#10;&#9;&#9;&#9;c0-1.339,1.084-2.423,2.42-2.423s2.42,1.084,2.42,2.423v188.359c0,5.532,1.372,9.452,4.074,11.651&#10;&#9;&#9;&#9;c3.691,2.999,8.912,1.953,8.962,1.944c0.163-0.036,0.339-0.055,0.505-0.055h27.285c1.336,0,2.423,1.084,2.423,2.422&#10;&#9;&#9;&#9;c0,1.339-1.087,2.422-2.423,2.422h-27.056C717.141,813.518,716.066,813.668,714.67,813.668z" style="fill: rgb(21, 92, 143);"/>
		<path fill="#006A96" d="M747.131,804.8v12.581h-16.054v-0.358c-3.091-0.227-5.538-2.778-5.538-5.933&#10;&#9;&#9;&#9;c0-3.151,2.447-5.703,5.538-5.929V804.8H747.131z" style="fill: rgb(21, 92, 143);"/>
		<path fill="#006A96" d="M707.587,615.776h-12.585v16.054h0.359c0.229,3.088,2.783,5.54,5.933,5.54c3.151,0,5.705-2.451,5.933-5.54&#10;&#9;&#9;&#9;h0.359V615.776z" style="fill: rgb(21, 92, 143);"/>
	</g>
	<g>
		<path fill="#006A96" d="M835.643,617.917H303.257c-71.89,0-130.377-58.526-130.377-130.467&#10;&#9;&#9;&#9;c0-71.911,58.487-130.414,130.377-130.414c8.495,0,16.939,0.828,25.238,2.469c4.086-28.344,17.309-54.454,38.074-74.702&#10;&#9;&#9;&#9;c24.446-23.835,56.73-36.962,90.905-36.962c22.835,0,44.771,5.862,64.323,17.083c9.48-27.835,26.744-52.802,49.716-71.535&#10;&#9;&#9;&#9;c27.913-22.761,63.151-35.296,99.226-35.296c82.757,0,150.795,64.226,156.882,145.453c2.76-0.168,5.414-0.249,8.021-0.249&#10;&#9;&#9;&#9;c86.748,0,157.324,70.541,157.324,157.248C992.966,547.32,922.391,617.917,835.643,617.917z M303.257,381.277&#10;&#9;&#9;&#9;c-58.523,0-106.134,47.629-106.134,106.173c0,58.573,47.612,106.225,106.134,106.225h532.385&#10;&#9;&#9;&#9;c73.382,0,133.083-59.722,133.083-133.13c0-73.339-59.701-133.005-133.083-133.005c-5.417,0-11.191,0.44-18.172,1.387&#10;&#9;&#9;&#9;c-3.473,0.473-6.968-0.581-9.602-2.883c-2.637-2.301-4.147-5.63-4.147-9.128c0-0.794,0.058-1.464,0.102-1.884&#10;&#9;&#9;&#9;c-0.212-73.203-59.832-132.697-133.084-132.697c-61.967,0-116.612,43.946-129.933,104.494c-0.89,4.045-3.783,7.355-7.672,8.778&#10;&#9;&#9;&#9;c-3.891,1.422-8.235,0.762-11.526-1.752c-18.639-14.244-40.816-21.773-64.135-21.773c-57.733,0-104.311,45.278-106.04,103.079&#10;&#9;&#9;&#9;c-0.114,3.806-2.01,7.338-5.119,9.535c-3.11,2.198-7.071,2.807-10.697,1.644C325.137,382.981,314.249,381.277,303.257,381.277z" style="fill: rgb(21, 92, 143);"/>
		<g>
			<path fill="#006A96" d="M587.902,390.278c0,0-0.444,1.01,1.449,1.845l4.744,2.711c0,0,1.408,0.75,1.546,2.919&#10;&#9;&#9;&#9;&#9;c0,0,0.518,2.691-0.503,3.477l-6.294,4.234c0,0-1.225,0.553-0.781,2.137l2.596,5.757c0,0,1.053,1.274,2.312,0.624l5.134-1.509&#10;&#9;&#9;&#9;&#9;c0,0,2.046-0.851,3.901,1.192c0,0,2.145,1.783,1.779,3.53l-1.571,6.348c0,0-0.578,1.442,1.305,2.121l5.281,2.113&#10;&#9;&#9;&#9;&#9;c0,0,1.714,0.349,2.322-0.892l2.849-5.169c0,0,0.563-1.599,2.84-1.725c0,0,3.044-0.749,4.264,1.223l3.376,5.47&#10;&#9;&#9;&#9;&#9;c0,0,0.512,1.321,2.606,0.821l4.973-2.134c0,0,1.711-0.837,1.017-2.636l-1.549-5.778c0,0-0.554-1.486,1.35-3.287&#10;&#9;&#9;&#9;&#9;c0,0,1.798-2.359,3.829-1.771l5.791,1.386c0,0,1.709,0.647,2.444-1.099l1.921-4.989c0,0,0.851-1.847-1.042-2.862l-5.513-2.84&#10;&#9;&#9;&#9;&#9;c0,0-1.419-1.46-1.342-3.319c0,0-0.058-2.918,1.624-3.695l5.121-3.203c0,0,1.46-0.976,0.981-2.339l-2.692-5.95&#10;&#9;&#9;&#9;&#9;c0,0-0.875-0.984-1.878-0.555l-6.763,1.926c0,0-2.077-0.187-3.332-2.063c0,0-1.479-1.779-1.467-2.552&#10;&#9;&#9;&#9;&#9;c0,0,1.678-6.609,1.773-6.939c0,0,0.485-1.403-0.843-1.972l-5.62-2.284c0,0-1.295-0.294-1.804,0.615l-3.866,6.697&#10;&#9;&#9;&#9;&#9;c0,0-1.587,0.994-3.214,0.791c0,0-2.8-0.416-3.434-1.34l-3.279-5.355c0,0-0.806-1.695-2.383-1.099l-5.586,2.37&#10;&#9;&#9;&#9;&#9;c0,0-1.128,0.511-0.784,1.877l1.823,6.663c0,0,0.732,1.968-2.024,3.944c0,0-1.657,1.825-4.324,1.056&#10;&#9;&#9;&#9;&#9;c-2.658-0.768-5.084-1.293-5.084-1.293s-1.402-0.482-2.01,0.941C589.262,385.847,587.902,390.278,587.902,390.278z&#10;&#9;&#9;&#9;&#9; M607.99,394.434c2.085-5.212,7.999-7.752,13.216-5.665c5.212,2.084,7.749,8.004,5.664,13.215&#10;&#9;&#9;&#9;&#9;c-2.085,5.213-8.005,7.748-13.213,5.665C608.438,405.561,605.907,399.647,607.99,394.434z" style="fill: rgb(21, 92, 143);"/>
			<path fill="#006A96" d="M511.027,431.588c0,0-0.012,1.538,2.872,1.566l7.559,0.886c0,0,2.215,0.187,3.571,2.894&#10;&#9;&#9;&#9;&#9;c0,0,2.14,3.168,1.262,4.728l-5.751,8.87c0,0-1.269,1.375,0.166,3.17l6.477,5.952c0,0,2.042,1.056,3.304-0.463l5.751-4.74&#10;&#9;&#9;&#9;&#9;c0,0,2.16-2.209,5.652-0.607c0,0,3.726,1.116,4.215,3.549l1.455,9c0,0,0.047,2.157,2.829,1.998l7.919-0.179&#10;&#9;&#9;&#9;&#9;c0,0,2.395-0.491,2.492-2.413l0.82-8.181c0,0-0.146-2.352,2.703-3.761c0,0,3.494-2.625,6.128-0.766l7.325,5.163&#10;&#9;&#9;&#9;&#9;c0,0,1.376,1.411,3.785-0.377l5.204-5.445c0,0,1.734-2.013-0.135-3.939l-5.145-6.558c0,0-1.528-1.598-0.067-4.947&#10;&#9;&#9;&#9;&#9;c0,0,1.016-4.01,3.936-4.365l8.18-1.389c0,0,2.545-0.105,2.532-2.745l-0.269-7.44c0,0,0.08-2.836-2.904-3.105l-8.606-0.62&#10;&#9;&#9;&#9;&#9;c0,0-2.624-1.09-3.541-3.521c0,0-1.667-3.705,0.065-5.62l4.805-6.907c0,0,1.341-2.048-0.018-3.532l-6.701-6.155&#10;&#9;&#9;&#9;&#9;c0,0-1.657-0.783-2.707,0.316l-7.617,6.165c0,0-2.764,0.901-5.401-0.817c0,0-2.866-1.473-3.272-2.471&#10;&#9;&#9;&#9;&#9;c0,0-1.464-9.382-1.524-9.862c0,0-0.141-2.06-2.16-2.063l-8.448,0.15c0,0-1.818,0.323-1.98,1.771l-1.292,10.691&#10;&#9;&#9;&#9;&#9;c0,0-1.486,2.148-3.679,2.774c0,0-3.82,0.999-5.137,0.166l-7.128-5.076c0,0-1.961-1.731-3.651-0.106l-5.867,6.09&#10;&#9;&#9;&#9;&#9;c0,0-1.169,1.277,0.019,2.834l5.983,7.548c0,0,2.017,2.119-0.439,6.158c0,0-1.126,3.242-4.959,3.713&#10;&#9;&#9;&#9;&#9;c-3.831,0.474-7.226,1.13-7.226,1.13s-2.062,0.14-2.06,2.303C510.353,425.168,511.027,431.588,511.027,431.588z M537,425.976&#10;&#9;&#9;&#9;&#9;c-0.207-8.949,6.883-16.374,15.832-16.576c8.951-0.208,16.372,6.885,16.577,15.835c0.203,8.949-6.884,16.368-15.833,16.574&#10;&#9;&#9;&#9;&#9;C544.623,442.015,537.202,434.924,537,425.976z" style="fill: rgb(21, 92, 143);"/>
		</g>
		<path fill="#006A96" d="M632.73,311.229l-2.248-10.988c-0.921-4.5-3.751-8.363-7.764-10.6c-3.287-1.834-7.131-2.425-10.817-1.67&#10;&#9;&#9;&#9;l-27.683,5.659c-6.557,1.34-11.564,6.701-12.454,13.337l-0.3,2.246l11.647-2.384l0.37-0.524c1.059-1.503,3.12-2.527,6.496-3.215&#10;&#9;&#9;&#9;l20.339-4.16c2.949-0.603,5.28-0.447,6.934,0.477c1.604,0.893,2.63,2.528,3.143,4.985l1.411,6.898&#10;&#9;&#9;&#9;c0.806,5.238-1.255,7.865-7.108,9.063l-12.391,2.536l-0.183-0.889c-0.922-4.498-3.752-8.359-7.765-10.598&#10;&#9;&#9;&#9;c-3.286-1.832-7.133-2.428-10.824-1.674l-27.68,5.665c-4.12,0.843-7.67,3.243-9.987,6.753c-2.316,3.509-3.13,7.713-2.285,11.834&#10;&#9;&#9;&#9;l2.249,10.979c0.923,4.495,3.752,8.36,7.763,10.603c0.003,0.002,0.003,0.002,0.003,0.002c3.285,1.832,7.131,2.426,10.819,1.671&#10;&#9;&#9;&#9;l27.676-5.66c6.678-1.366,11.697-6.832,12.489-13.6l0.261-2.212l-11.822,2.416l-0.37,0.565c-1.053,1.614-3.117,2.715-6.312,3.369&#10;&#9;&#9;&#9;l-20.339,4.16c-3.436,0.702-5.644,0.639-7.164-0.209c-1.483-0.827-2.436-2.532-2.918-5.255l-1.427-6.99&#10;&#9;&#9;&#9;c-0.52-2.448-0.341-4.291,0.543-5.643c1.029-1.564,3.12-2.62,6.58-3.327l12.396-2.535l0.181,0.884&#10;&#9;&#9;&#9;c0.921,4.5,3.751,8.363,7.763,10.602c3.29,1.835,7.136,2.431,10.829,1.673l27.677-5.661&#10;&#9;&#9;&#9;C628.964,328.068,634.469,319.731,632.73,311.229z M587.197,324.306c-1.226-0.684-2.091-1.984-2.621-3.954&#10;&#9;&#9;&#9;c1.734-0.076,3.185,0.19,4.307,0.817c1.314,0.733,2.239,1.973,2.812,3.752C589.723,325.109,588.278,324.91,587.197,324.306z" style="fill: rgb(21, 92, 143);"/>
		<path fill="#006A96" d="M444.467,529.804c-3.549-18.464,8.489-22.722,8.489-22.722s4.249-32.288,41.625-32.288&#10;&#9;&#9;&#9;c37.37,0,40.202,31.988,40.202,31.988s11.89,4.19,11.325,19.434c0,24.516-15.578,28.106-15.578,28.106&#10;&#9;&#9;&#9;c-8.772,0-9.339-7.476-9.339-7.476s0-23.019,0-30.495c0-7.474,8.704-8.572,8.704-8.572c0-6.869-14.651-29.288-35.314-29.288&#10;&#9;&#9;&#9;c-20.672,0-34.52,22.017-34.806,29.485c7.428-1.381,8.471,5.687,8.471,5.687s0,15.54,0,24.516c0,8.967-1.697,11.657-5.659,12.252&#10;&#9;&#9;&#9;c1.347,6.502,11.711,10.036,11.711,10.036l3.976,0.967c0.987-3.249,3.839-5.62,7.244-5.62c4.226,0,7.645,3.615,7.645,8.074&#10;&#9;&#9;&#9;c0,4.462-3.419,8.073-7.645,8.073c-3.113,0-7.477-2.157-7.236-7.368l-0.159-0.426c-8.689-0.589-16.886-7.978-19.032-12.836&#10;&#9;&#9;&#9;C459.089,551.332,448.857,552.621,444.467,529.804z" style="fill: rgb(21, 92, 143);"/>
		<g>
			<path fill="#006A96" d="M887.348,424.552c-8.062-6.991-16.051-3.137-16.051-3.137l1.039,6.328c0,0,6.172-2.1,11.133,2.206&#10;&#9;&#9;&#9;&#9;c4.952,4.303,3.693,10.113,3.693,10.113l6.952-0.491C894.114,439.572,894.784,431.007,887.348,424.552z" style="fill: rgb(21, 92, 143);"/>
			<path fill="#006A96" d="M895.701,412.698c-13.377-10.861-27.311-5.224-27.311-5.224l1.529,6.769c0,0,13.139-3.455,22.13,4.344&#10;&#9;&#9;&#9;&#9;c8.983,7.798,8.205,21.424,8.205,21.424l6.925,0.625C907.179,440.635,910.573,424.779,895.701,412.698z" style="fill: rgb(21, 92, 143);"/>
			<path fill="#006A96" d="M878.081,455.944c0,0,10.236,18.427,0,25.934c-10.239,7.505-36.162-10.919-42.308-23.206&#10;&#9;&#9;&#9;&#9;c-6.141-12.282-8.475-20.903-1.831-24.624c7.598-4.256,19.147-0.607,23.663,1.424c0,0-19.105-13.583-30.021-6.14&#10;&#9;&#9;&#9;&#9;c-12.198,8.314-6.143,25.931,8.189,41.628c8.187,7.5-7.424,9.567-17.929-22.825c-0.996,33.941,35.827,45.831,35.827,45.831&#10;&#9;&#9;&#9;&#9;s32.681,11.961,34.646-12.087C889.813,463.543,878.081,455.944,878.081,455.944z M863.622,493.29&#10;&#9;&#9;&#9;&#9;c-11.344-3.455-11.78-9.577-11.78-9.577c1.483,0.497,22.19,14.796,36.002,0.497C884.959,491.009,874.966,496.74,863.622,493.29z" style="fill: rgb(21, 92, 143);"/>
			<path fill="#006A96" d="M834.608,495.369c0,0-2.49,6.751-7.653,11.005c-5.167,4.255-6.683,4.555-6.386,5.773&#10;&#9;&#9;&#9;&#9;c0.31,1.215,0.612,5.773,0.612,5.773h51.364l-2.741-9.417C869.803,508.503,846.762,508.738,834.608,495.369z" style="fill: rgb(21, 92, 143);"/>
			<path fill="#006A96" d="M841.848,450.153l1.023,4.306l22.511-4.93c0,0-3.691,12.166-4.414,22.665c0,0,3.979,1.66,3.979,1.36&#10;&#9;&#9;&#9;&#9;c0-0.914,5.094-23.556,5.094-23.556s3.941,0.811,6.068-2.066c1.871-2.526,4.031-6.137-0.833-11.152c0,0-7.789-4.406-11.05,2.473&#10;&#9;&#9;&#9;&#9;c-3.039,4.218-1.446,6.515-1.446,6.515L841.848,450.153z" style="fill: rgb(21, 92, 143);"/>
		</g>
		<g>
			<path fill="#006A96" d="M422.426,397.914c-35.435-0.961-37.377,45.221-37.377,45.221c20.982,15.396,76.119,2.718,76.119,2.718&#10;&#9;&#9;&#9;&#9;C462.143,444.805,462.956,399.019,422.426,397.914z" style="fill: rgb(21, 92, 143);"/>
			<g>
				<path fill="#006A96" d="M432.895,358.726c-3.973-3.094-9.221-4.73-14.77-4.171c-11.082,1.106-19.208,10.52-18.156,21.027&#10;&#9;&#9;&#9;&#9;&#9;c1.056,10.501,10.889,18.118,21.964,17.006c7.428-0.741,13.514-5.226,16.411-11.255&#10;&#9;&#9;&#9;&#9;&#9;C443.468,367.635,433.219,358.55,432.895,358.726z" style="fill: rgb(21, 92, 143);"/>
				<path fill="#006A96" d="M479.421,341.015h-23.855c-9.754,0-18.08,5.98-21.584,14.468c2.115,1.087,6.708,4.56,8.449,10.786&#10;&#9;&#9;&#9;&#9;&#9;c1.617,5.767,1.742,12.699-1.618,17.308c2.67,2.355,5.158,3.586,8.705,4.529l-7.47,8.594l20.625-7.8h16.747&#10;&#9;&#9;&#9;&#9;&#9;c12.919,0,23.392-10.475,23.392-23.393v-1.096C502.813,351.487,492.34,341.015,479.421,341.015z M485.721,371.695h-37.233&#10;&#9;&#9;&#9;&#9;&#9;v-4.572h37.233V371.695z M485.721,362.55h-37.233v-4.571h37.233V362.55z" style="fill: rgb(21, 92, 143);"/>
			</g>
		</g>
		<path fill="#006A96" d="M408.403,485.863c-4.143-12.486-17.524-18.911-30.119-15.106c-16.742,5.056-23.674,26.086-23.674,26.086&#10;&#9;&#9;&#9;c-3.004,6.471-5.803,13.168-14.331,18.956c-16.171,10.955-32.963-20.039-23.321,9.366c0.561,1.708,1.379,3.379,2.313,5.014&#10;&#9;&#9;&#9;c-10.829-5.813-12.295-6.385-7.54,7.549c5.575,16.312,22.591,23.693,39.514,25.142c15.042,0,31.92-3.761,38.441-18.719&#10;&#9;&#9;&#9;c4.863-11.163,4.983-26.462,17.106-39.564c0,0,7.25-6.53,17.832-7.705C410.624,496.065,408.403,485.863,408.403,485.863z&#10;&#9;&#9;&#9; M389.551,493.444c-3.68,0-6.659-2.986-6.659-6.663c0-3.675,2.979-6.663,6.659-6.663c3.679,0,6.661,2.988,6.661,6.663&#10;&#9;&#9;&#9;C396.212,490.458,393.231,493.444,389.551,493.444z" style="fill: rgb(21, 92, 143);"/>
		<path fill="#006A96" d="M783.655,535.222c-4.196,0.267-7.895,2.097-10.689,4.824l-21.832-12.003&#10;&#9;&#9;&#9;c0.092-0.909,0.162-1.828,0.104-2.769c-0.089-1.427-0.413-2.774-0.828-4.068l24.422-18.251c3.209,2.659,7.366,4.18,11.85,3.902&#10;&#9;&#9;&#9;c9.326-0.591,16.408-8.637,15.831-17.959c-0.595-9.332-8.634-16.416-17.962-15.82c-9.328,0.584-16.41,8.623-15.821,17.955&#10;&#9;&#9;&#9;c0.068,1.068,0.254,2.098,0.506,3.1l-25.239,18.4c-3.036-2.128-6.741-3.326-10.725-3.075c-9.322,0.585-16.409,8.625-15.819,17.957&#10;&#9;&#9;&#9;c0.591,9.325,8.625,16.409,17.959,15.818c4.699-0.295,8.821-2.486,11.688-5.774l20.915,12.07c-0.183,1.18-0.261,2.407-0.183,3.651&#10;&#9;&#9;&#9;c0.586,9.332,8.625,16.42,17.954,15.828c9.326-0.592,16.413-8.627,15.823-17.959C801.032,541.723,792.98,534.633,783.655,535.222z&#10;&#9;&#9;&#9;" style="fill: rgb(21, 92, 143);"/>
		<path fill="#006A96" d="M766.424,324.021l-27.663-24.481c-0.628-0.572-1.326-0.982-2.054-1.327&#10;&#9;&#9;&#9;c3.577-6.131,5.632-13.262,5.632-20.872c0-22.934-18.593-41.528-41.525-41.528c-22.936,0-41.531,18.593-41.531,41.528&#10;&#9;&#9;&#9;c0,22.935,18.596,41.53,41.531,41.53c8.279,0,15.988-2.436,22.468-6.616c0.44,0.863,1.017,1.675,1.776,2.359l27.662,24.482&#10;&#9;&#9;&#9;c3.375,3.068,8.6,2.818,11.668-0.556l2.598-2.852C770.047,332.314,769.799,327.09,766.424,324.021z M700.814,302.786&#10;&#9;&#9;&#9;c-14.054,0-25.442-11.388-25.442-25.443c0-14.051,11.388-25.439,25.442-25.439c14.048,0,25.438,11.389,25.438,25.439&#10;&#9;&#9;&#9;C726.251,291.398,714.862,302.786,700.814,302.786z" style="fill: rgb(21, 92, 143);"/>
		<g>
			<path fill="#006A96" d="M680.846,481.472c0,0-0.352-7.705-7.872-13.204c-8.151-5.958-15.013-2.21-15.013-2.21l1.656,5.63&#10;&#9;&#9;&#9;&#9;c0,0,5.402-2.105,10.419,1.562c5.011,3.666,4.526,8.924,4.526,8.924L680.846,481.472z" style="fill: rgb(21, 92, 143);"/>
			<path fill="#006A96" d="M679.552,455.405c-14.411-7.608-25.816-1.727-25.816-1.727l2.156,6.01c0,0,11.61-3.588,20.698,3.06&#10;&#9;&#9;&#9;&#9;c9.085,6.645,9.914,18.884,9.914,18.884l6.088-0.552C692.591,481.079,694.376,463.232,679.552,455.405z" style="fill: rgb(21, 92, 143);"/>
			<path fill="#006A96" d="M666.001,531.295v-43.306c0,0,1.707-8.379-9.779-8.379c-13.503,0-61.976,0-61.976,0&#10;&#9;&#9;&#9;&#9;s-6.469-0.506-6.469,7.787c0,12.576,0,47.625,0,47.625l18.156,29.8h78.23c0,0,6.048-5.59-2.325-15.366&#10;&#9;&#9;&#9;&#9;C673.461,539.678,666.001,531.295,666.001,531.295z M662.772,543.828h-9.636l-4.408-4.87h10.082L662.772,543.828z&#10;&#9;&#9;&#9;&#9; M634.815,538.958h10.082l3.963,4.87h-9.629L634.815,538.958z M634.951,543.828h-9.63l-4.416-4.87h10.086L634.951,543.828z&#10;&#9;&#9;&#9;&#9; M598.486,531.295v-42.374h58.203v42.374H598.486z M606.995,538.958h10.083l3.961,4.87h-9.624L606.995,538.958z M618.39,552.422&#10;&#9;&#9;&#9;&#9;l-4.417-4.872h10.085l3.964,4.872H618.39z M632.302,552.422l-4.417-4.872h10.085l3.96,4.872H632.302z M646.207,552.422&#10;&#9;&#9;&#9;&#9;l-4.408-4.872h10.073l3.964,4.872H646.207z M660.12,552.422l-4.408-4.872h10.077l3.963,4.872H660.12z" style="fill: rgb(21, 92, 143);"/>
			<polygon fill="#006A96" points="628.363,508.585 617.546,519.403 620.743,522.451 631.597,511.33 634.265,517.926 &#10;&#9;&#9;&#9;&#9;640.166,498.753 621.974,507.111 &#9;&#9;&#9;" style="fill: rgb(21, 92, 143);"/>
		</g>
		<g>
			<path fill="#006A96" d="M717.157,416.934l12.471-21.601l12.466-21.601h-12.266v-20.83c0-0.905-0.732-1.636-1.632-1.636h-22.082&#10;&#9;&#9;&#9;&#9;c-0.898,0-1.633,0.731-1.633,1.636v20.83h-12.269l12.469,21.601L717.157,416.934z" style="fill: rgb(21, 92, 143);"/>
			<path fill="#006A96" d="M755.048,397.626h-3.914v24.75h-67.685v-24.75h-4.817c-3.763,0-6.811,3.051-6.811,6.818v25.129&#10;&#9;&#9;&#9;&#9;c0,3.762,3.048,6.812,6.811,6.812h76.415c3.765,0,6.818-3.05,6.818-6.812v-25.129&#10;&#9;&#9;&#9;&#9;C761.866,400.677,758.813,397.626,755.048,397.626z" style="fill: rgb(21, 92, 143);"/>
		</g>
		<path fill="#006A96" d="M848.064,366.04c0,0-8.714-10.927-15.439-12.786c0,0-1.636-0.972-1.811,0.976c0,0-0.531,4.688-0.531,5.751&#10;&#9;&#9;&#9;c0,0,0.445,0.354-0.708,1.591c-1.151,1.241-15.304,17.253-15.304,17.253s-0.976,0.707-1.725,0.797c0,0-7.564-1.46-10.612,2.696&#10;&#9;&#9;&#9;c0,0-0.442,0.396,0.434,1.46l7.566,8.163l-20.037,27.001l23.264-24.326l7.831,6.1c0,0,1.82,0.618,2.435-0.128&#10;&#9;&#9;&#9;c0.619-0.753,2.743-4.428,1.152-10.306c0,0-0.224-0.929,0.352-1.905c0.575-0.972,14.683-17.471,14.683-17.471&#10;&#9;&#9;&#9;s0.578-0.573,1.286-0.355c0,0,6.055-1.021,7.029-2.745C847.928,367.804,848.995,367.279,848.064,366.04z" style="fill: rgb(21, 92, 143);"/>
		<g>
			<path fill="#006A96" d="M295.518,418.884v59.621c0,4.569,3.703,8.267,8.268,8.267h34.57c4.568,0,8.264-3.698,8.264-8.267v-59.621&#10;&#9;&#9;&#9;&#9;c0-4.566-3.697-8.266-8.264-8.266h-34.57C299.221,410.618,295.518,414.317,295.518,418.884z M317.774,480.742&#10;&#9;&#9;&#9;&#9;c0-1.82,1.476-3.295,3.297-3.295c1.821,0,3.294,1.475,3.294,3.295c0,1.821-1.473,3.297-3.294,3.297&#10;&#9;&#9;&#9;&#9;C319.25,484.039,317.774,482.563,317.774,480.742z M302.827,419.452h37.146v53.641h-37.146V419.452z" style="fill: rgb(21, 92, 143);"/>
			<path fill="#006A96" d="M284.44,419.09v1.232c-0.667,0.229-1.15,0.857-1.15,1.602v1.093c-0.82,0.557-1.362,1.505-1.362,2.582&#10;&#9;&#9;&#9;&#9;v46.662c0,0.721,0.253,1.376,0.658,1.903c-0.002,0.029-0.009,0.056-0.009,0.087v2.528c0,1.33,1.082,2.413,2.414,2.413&#10;&#9;&#9;&#9;&#9;c1.33,0,2.412-1.082,2.412-2.413v-2.528c0-0.031-0.007-0.058-0.008-0.087c0.405-0.527,0.657-1.183,0.657-1.903v-46.662&#10;&#9;&#9;&#9;&#9;c0-1.077-0.541-2.025-1.362-2.582v-1.093c0-0.884-0.675-1.601-1.537-1.685v-1.149c0-0.198-0.159-0.356-0.356-0.356&#10;&#9;&#9;&#9;&#9;C284.6,418.734,284.44,418.893,284.44,419.09z M284.992,477.767c-0.546,0-0.99-0.443-0.99-0.987v-1.59&#10;&#9;&#9;&#9;&#9;c0.313,0.108,0.641,0.18,0.99,0.18c0.347,0,0.676-0.072,0.987-0.18v1.59C285.979,477.323,285.536,477.767,284.992,477.767z" style="fill: rgb(21, 92, 143);"/>
		</g>
	</g>
	<path fill="#002638" d="M157.469,806.498H74.861c-13.73,0-24.861,11.133-24.861,24.863v158.721&#10;&#9;&#9;c0,13.734,11.131,24.866,24.861,24.866h82.608c13.735,0,24.867-11.132,24.867-24.866V831.361&#10;&#9;&#9;C182.336,817.631,171.204,806.498,157.469,806.498z M155.825,826.47c2.783,0,5.046,2.254,5.046,5.034&#10;&#9;&#9;c0,2.793-2.263,5.039-5.046,5.039c-2.779,0-5.036-2.246-5.036-5.039C150.79,828.724,153.046,826.47,155.825,826.47z&#10;&#9;&#9; M92.131,826.227h46.823c2.119,0,3.824,1.697,3.824,3.822c0,2.132-1.705,3.831-3.824,3.831H92.131c-2.12,0-3.822-1.699-3.822-3.831&#10;&#9;&#9;C88.309,827.924,90.01,826.227,92.131,826.227z M131.852,1000.777H99.258c-1.47,0-2.671-1.173-2.671-2.676&#10;&#9;&#9;c0-1.448,1.201-2.636,2.671-2.636h32.594c1.465,0,2.65,1.188,2.65,2.636C134.502,999.604,133.317,1000.777,131.852,1000.777z&#10;&#9;&#9; M163.318,984.282H67.77V845.385h95.548V984.282z"/>
	<g>
		<path fill="#006A96" d="M128.501,922.185c-0.03-0.027-0.068-0.052-0.102-0.077c-3.167-3.359-7.722-5.402-12.725-5.35v-0.007&#10;&#9;&#9;&#9;c-0.068-0.003-0.137,0.007-0.205,0c-0.068,0.007-0.134-0.003-0.204,0v0.007c-5-0.052-9.556,1.991-12.722,5.35&#10;&#9;&#9;&#9;c-0.036,0.025-0.073,0.05-0.106,0.077c-0.056,0.04-0.108,0.085-0.159,0.128c-1.076,0.956-1.319,2.371-0.539,3.16l2.371,2.441&#10;&#9;&#9;&#9;c0.775,0.788,2.276,0.661,3.35-0.288c0.031-0.027,0.05-0.05,0.083-0.074l0.004,0.001c0.029-0.028,0.053-0.059,0.083-0.094&#10;&#9;&#9;&#9;c0.09-0.105,0.183-0.215,0.279-0.324c1.8-1.982,4.446-3.191,7.356-3.127v0.019c0.054-0.007,0.106-0.019,0.16-0.019&#10;&#9;&#9;&#9;c0.016,0,0.032-0.005,0.044-0.005c0.015,0,0.03,0.005,0.045,0.005c0.055,0,0.106,0.012,0.16,0.019v-0.019&#10;&#9;&#9;&#9;c2.909-0.064,5.557,1.145,7.353,3.127c0.1,0.108,0.194,0.218,0.284,0.324c0.028,0.034,0.056,0.065,0.084,0.094l0.004-0.001&#10;&#9;&#9;&#9;c0.031,0.024,0.054,0.047,0.08,0.074c1.073,0.949,2.577,1.076,3.353,0.288l2.37-2.441c0.778-0.789,0.536-2.204-0.538-3.16&#10;&#9;&#9;&#9;C128.608,922.27,128.557,922.225,128.501,922.185z" style="fill: rgb(21, 92, 143);"/>
		<path fill="#006A96" d="M82.574,901.261c0.829,0.845,2.211,0.938,3.266,0.261l0.008,0.003c0.018-0.012,0.043-0.034,0.061-0.05&#10;&#9;&#9;&#9;c0.095-0.068,0.194-0.134,0.287-0.221c0.128-0.108,0.238-0.229,0.337-0.358c7.526-6.827,17.7-10.855,28.732-10.539v0.006&#10;&#9;&#9;&#9;c0.067-0.006,0.136,0,0.204-0.006c0.068,0.006,0.137,0,0.205,0.006v-0.006c11.031-0.316,21.203,3.712,28.73,10.539&#10;&#9;&#9;&#9;c0.099,0.129,0.215,0.25,0.341,0.358c0.089,0.088,0.19,0.153,0.284,0.221c0.023,0.016,0.044,0.039,0.064,0.05l0.007-0.003&#10;&#9;&#9;&#9;c1.054,0.677,2.44,0.583,3.27-0.261l2.831-2.903c0.863-0.875,0.82-2.258-0.037-3.216c-0.071-0.074-0.148-0.153-0.228-0.223&#10;&#9;&#9;&#9;c-0.098-0.094-0.208-0.169-0.313-0.239c-9.186-8.407-21.639-13.376-35.153-13.007c-13.515-0.37-25.964,4.6-35.15,13.007&#10;&#9;&#9;&#9;c-0.108,0.07-0.218,0.146-0.313,0.239c-0.082,0.07-0.16,0.149-0.225,0.223c-0.86,0.958-0.903,2.342-0.043,3.216L82.574,901.261z" style="fill: rgb(21, 92, 143);"/>
		<path fill="#006A96" d="M138.879,909.039c-0.113-0.089-0.22-0.178-0.339-0.251c-5.883-5.714-14.003-9.179-22.867-9.142&#10;&#9;&#9;&#9;c-0.068,0-0.137,0-0.205,0c-0.068,0-0.137,0-0.204,0c-8.864-0.037-16.979,3.428-22.863,9.142c-0.12,0.073-0.234,0.162-0.34,0.251&#10;&#9;&#9;&#9;c-0.043,0.039-0.086,0.082-0.127,0.122c-0.955,0.959-1.078,2.359-0.252,3.198l2.646,2.711c0.804,0.83,2.229,0.84,3.287,0.065&#10;&#9;&#9;&#9;c0.077-0.062,0.151-0.111,0.226-0.184c0.195-0.168,0.356-0.355,0.489-0.558c4.42-4.238,10.505-6.768,17.138-6.662&#10;&#9;&#9;&#9;c6.633-0.105,12.72,2.425,17.14,6.662c0.132,0.203,0.296,0.39,0.486,0.558c0.074,0.073,0.152,0.122,0.229,0.184&#10;&#9;&#9;&#9;c1.059,0.775,2.481,0.765,3.287-0.065l2.644-2.711c0.826-0.839,0.702-2.239-0.25-3.198&#10;&#9;&#9;&#9;C138.961,909.12,138.919,909.077,138.879,909.039z" style="fill: rgb(21, 92, 143);"/>
		<path fill="#006A96" d="M115.469,932.273c-3.236,0-5.861,2.619-5.861,5.856c0,3.24,2.624,5.859,5.861,5.859&#10;&#9;&#9;&#9;c3.235,0,5.861-2.619,5.861-5.859C121.33,934.892,118.705,932.273,115.469,932.273z" style="fill: rgb(21, 92, 143);"/>
	</g>
	<path fill="#002638" d="M1133.37,783.417h-69.514c-9.185,0-16.621,7.439-16.621,16.622v119.898c0,9.179,7.436,16.618,16.621,16.618&#10;&#9;&#9;h69.514c9.179,0,16.63-7.439,16.63-16.618V800.039C1150,790.856,1142.549,783.417,1133.37,783.417z M1098.612,921.533&#10;&#9;&#9;c-5.128,0-9.278-4.148-9.278-9.28c0-5.126,4.15-9.28,9.278-9.28c5.129,0,9.286,4.154,9.286,9.28&#10;&#9;&#9;C1107.899,917.385,1103.741,921.533,1098.612,921.533z M1135.643,893.782h-74.066v-95.145h74.066V893.782z"/>
	<g>
		<g>
			<path fill="#006A96" d="M1108.344,854.374c-0.031-0.031-0.062-0.055-0.092-0.079c-0.019-0.016-0.036-0.03-0.059-0.043&#10;&#9;&#9;&#9;&#9;c-1.834-1.95-4.474-3.136-7.369-3.102v-0.001c-0.04-0.003-0.083,0.001-0.117,0c-0.043,0.001-0.083-0.003-0.122,0v0.001&#10;&#9;&#9;&#9;&#9;c-2.898-0.034-5.532,1.152-7.371,3.102c-0.019,0.013-0.038,0.027-0.059,0.043c-0.033,0.024-0.065,0.047-0.095,0.079&#10;&#9;&#9;&#9;&#9;c-0.622,0.546-0.759,1.371-0.309,1.825l1.373,1.417c0.448,0.454,1.317,0.385,1.939-0.169c0.018-0.013,0.028-0.03,0.052-0.043&#10;&#9;&#9;&#9;&#9;v0.003c0.016-0.018,0.028-0.036,0.046-0.054c0.05-0.065,0.108-0.128,0.162-0.189c1.041-1.149,2.573-1.852,4.261-1.815v0.013&#10;&#9;&#9;&#9;&#9;c0.031-0.006,0.061-0.013,0.094-0.013c0.006,0,0.016-0.003,0.028-0.003c0.009,0,0.012,0.003,0.024,0.003&#10;&#9;&#9;&#9;&#9;c0.03,0,0.059,0.007,0.094,0.013v-0.013c1.685-0.037,3.216,0.665,4.26,1.815c0.053,0.061,0.11,0.123,0.16,0.189&#10;&#9;&#9;&#9;&#9;c0.015,0.018,0.036,0.036,0.051,0.054v-0.003c0.018,0.013,0.033,0.03,0.047,0.043c0.624,0.554,1.494,0.624,1.942,0.169&#10;&#9;&#9;&#9;&#9;l1.372-1.417C1109.104,855.745,1108.968,854.92,1108.344,854.374z" style="fill: rgb(21, 92, 143);"/>
			<path fill="#006A96" d="M1121.376,838.631c-0.037-0.043-0.083-0.086-0.129-0.131c-0.059-0.053-0.12-0.097-0.181-0.138&#10;&#9;&#9;&#9;&#9;c-5.322-4.866-12.533-7.745-20.359-7.534c-7.834-0.211-15.041,2.668-20.363,7.534c-0.068,0.042-0.128,0.085-0.186,0.138&#10;&#9;&#9;&#9;&#9;c-0.045,0.045-0.088,0.088-0.128,0.131c-0.499,0.557-0.523,1.354-0.028,1.862l1.645,1.682c0.481,0.49,1.28,0.541,1.892,0.15&#10;&#9;&#9;&#9;&#9;l0.006,0.003c0.009-0.007,0.024-0.021,0.036-0.028c0.055-0.04,0.113-0.079,0.163-0.128c0.076-0.065,0.14-0.137,0.201-0.208&#10;&#9;&#9;&#9;&#9;c4.358-3.955,10.248-6.29,16.64-6.102l0,0c0.039,0,0.079,0,0.122,0c0.034,0,0.077,0,0.117,0l0,0&#10;&#9;&#9;&#9;&#9;c6.389-0.187,12.282,2.147,16.643,6.102c0.054,0.071,0.119,0.143,0.195,0.208c0.052,0.049,0.11,0.088,0.168,0.128&#10;&#9;&#9;&#9;&#9;c0.009,0.007,0.019,0.021,0.03,0.028l0.01-0.003c0.609,0.391,1.411,0.34,1.89-0.15l1.644-1.682&#10;&#9;&#9;&#9;&#9;C1121.9,839.985,1121.876,839.188,1121.376,838.631z" style="fill: rgb(21, 92, 143);"/>
			<path fill="#006A96" d="M1114.261,846.681c-0.062-0.05-0.123-0.101-0.195-0.146c-3.406-3.311-8.113-5.319-13.243-5.295l0,0&#10;&#9;&#9;&#9;&#9;c-0.04,0-0.083,0-0.117,0c-0.043,0-0.083,0-0.122,0l0,0c-5.136-0.024-9.834,1.984-13.244,5.295&#10;&#9;&#9;&#9;&#9;c-0.071,0.045-0.137,0.095-0.196,0.146c-0.025,0.022-0.048,0.045-0.074,0.068c-0.552,0.554-0.621,1.365-0.146,1.853l1.534,1.572&#10;&#9;&#9;&#9;&#9;c0.463,0.481,1.287,0.487,1.904,0.037c0.042-0.036,0.088-0.064,0.131-0.105c0.111-0.098,0.206-0.208,0.282-0.324&#10;&#9;&#9;&#9;&#9;c2.56-2.454,6.086-3.923,9.932-3.862c3.835-0.061,7.368,1.408,9.924,3.862c0.077,0.116,0.174,0.226,0.285,0.324&#10;&#9;&#9;&#9;&#9;c0.043,0.042,0.086,0.07,0.129,0.105c0.618,0.45,1.437,0.444,1.905-0.037l1.531-1.572c0.479-0.488,0.41-1.299-0.144-1.853&#10;&#9;&#9;&#9;&#9;C1114.311,846.726,1114.286,846.704,1114.261,846.681z" style="fill: rgb(21, 92, 143);"/>
		</g>
		<path fill="#006A96" d="M1100.706,860.138c-1.881,0-3.397,1.517-3.397,3.394c0,1.874,1.516,3.393,3.397,3.393&#10;&#9;&#9;&#9;c1.871,0,3.393-1.519,3.393-3.393C1104.099,861.656,1102.577,860.138,1100.706,860.138z" style="fill: rgb(21, 92, 143);"/>
	</g>
	<g>
		<path fill="#002638" d="M447.268,987.806h-14.187c0.917-1.705,1.561-3.562,1.561-5.63c0-6.711-5.454-12.153-12.152-12.153h-71.127&#10;&#9;&#9;&#9;c-6.695,0-12.152,5.442-12.152,12.153c0,2.068,0.665,3.926,1.545,5.63h-13.235c-8.514,0-15.418,6.909-15.418,15.429&#10;&#9;&#9;&#9;c0,8.526,6.904,15.429,15.418,15.429h119.746c8.521,0,15.437-6.903,15.437-15.429&#10;&#9;&#9;&#9;C462.705,994.714,455.788,987.806,447.268,987.806z"/>
		<path fill="#002638" d="M510.364,697.374H250.103c-26.634,0-48.216,21.585-48.216,48.208V910.92&#10;&#9;&#9;&#9;c0,26.661,21.582,48.216,48.216,48.216h237.428V931.74H268.606c-31.415,0.616-41.252-10.973-41.111-38.116V762.891&#10;&#9;&#9;&#9;c1.588-30.753,12.007-37.699,41.111-38.122h221.835c36.616-0.159,41.251,12.589,41.112,38.122v124.95h27.032V745.583&#10;&#9;&#9;&#9;C558.584,718.959,536.999,697.374,510.364,697.374z"/>
	</g>
	<g>
		<g>
			<path fill="#006A96" d="M404.782,845.716c-0.094-0.076-0.179-0.147-0.275-0.226c-0.058-0.042-0.12-0.085-0.183-0.129&#10;&#9;&#9;&#9;&#9;c-5.517-5.865-13.467-9.425-22.184-9.328v-0.021c-0.117-0.003-0.24,0.021-0.354,0c-0.125,0.021-0.241-0.003-0.364,0v0.021&#10;&#9;&#9;&#9;&#9;c-8.719-0.098-16.662,3.463-22.18,9.328c-0.061,0.045-0.123,0.088-0.186,0.129c-0.097,0.079-0.188,0.15-0.276,0.226&#10;&#9;&#9;&#9;&#9;c-1.875,1.657-2.296,4.132-0.939,5.513l4.131,4.248c1.353,1.379,3.971,1.161,5.844-0.497c0.054-0.044,0.089-0.094,0.144-0.132&#10;&#9;&#9;&#9;&#9;l0.005,0.01c0.05-0.055,0.096-0.107,0.145-0.168c0.159-0.184,0.321-0.374,0.493-0.561c3.131-3.464,7.748-5.575,12.819-5.454&#10;&#9;&#9;&#9;&#9;v0.033c0.099-0.012,0.185-0.033,0.285-0.033c0.022,0,0.052-0.016,0.079-0.016c0.019,0,0.045,0.016,0.074,0.016&#10;&#9;&#9;&#9;&#9;c0.094,0,0.18,0.021,0.28,0.033v-0.033c5.073-0.122,9.688,1.99,12.82,5.454c0.174,0.187,0.336,0.377,0.491,0.561&#10;&#9;&#9;&#9;&#9;c0.047,0.061,0.099,0.113,0.147,0.168l0.01-0.01c0.052,0.039,0.089,0.088,0.139,0.132c1.872,1.659,4.493,1.877,5.847,0.497&#10;&#9;&#9;&#9;&#9;l4.126-4.248C407.083,849.848,406.656,847.373,404.782,845.716z" style="fill: rgb(21, 92, 143);"/>
			<path fill="#006A96" d="M444.018,798.347c-0.122-0.132-0.256-0.282-0.396-0.401c-0.171-0.159-0.361-0.288-0.545-0.41&#10;&#9;&#9;&#9;&#9;c-16.019-14.659-37.732-23.326-61.291-22.685c-23.568-0.641-45.276,8.025-61.295,22.685c-0.19,0.122-0.379,0.251-0.549,0.41&#10;&#9;&#9;&#9;&#9;c-0.138,0.119-0.278,0.269-0.393,0.401c-1.496,1.663-1.572,4.073-0.073,5.602l4.947,5.059c1.443,1.474,3.857,1.632,5.695,0.459&#10;&#9;&#9;&#9;&#9;l0.015,0.003c0.031-0.024,0.073-0.058,0.106-0.085c0.166-0.119,0.338-0.236,0.497-0.388c0.229-0.194,0.42-0.396,0.591-0.625&#10;&#9;&#9;&#9;&#9;c13.124-11.899,30.862-18.928,50.096-18.379v0.009c0.122-0.009,0.238,0,0.364-0.009c0.114,0.009,0.237,0,0.354,0.009v-0.009&#10;&#9;&#9;&#9;&#9;c19.234-0.549,36.97,6.48,50.096,18.379c0.169,0.229,0.368,0.431,0.594,0.625c0.155,0.151,0.328,0.269,0.494,0.388&#10;&#9;&#9;&#9;&#9;c0.035,0.027,0.076,0.061,0.105,0.085l0.019-0.003c1.836,1.173,4.251,1.016,5.695-0.459l4.945-5.059&#10;&#9;&#9;&#9;&#9;C445.59,802.419,445.514,800.01,444.018,798.347z" style="fill: rgb(21, 92, 143);"/>
			<path fill="#006A96" d="M422.599,822.567c-0.191-0.154-0.383-0.301-0.589-0.437c-10.26-9.963-24.417-16.006-39.87-15.929l0,0&#10;&#9;&#9;&#9;&#9;c-0.117,0-0.24,0-0.354,0c-0.125,0-0.242,0-0.364,0l0,0c-15.453-0.077-29.604,5.966-39.865,15.929&#10;&#9;&#9;&#9;&#9;c-0.206,0.135-0.404,0.282-0.589,0.437c-0.073,0.073-0.148,0.144-0.221,0.212c-1.667,1.673-1.881,4.113-0.44,5.581l4.615,4.727&#10;&#9;&#9;&#9;&#9;c1.403,1.446,3.883,1.467,5.728,0.11c0.137-0.101,0.267-0.19,0.396-0.312c0.336-0.295,0.621-0.625,0.85-0.977&#10;&#9;&#9;&#9;&#9;c7.708-7.39,18.321-11.797,29.89-11.622c11.559-0.175,22.176,4.232,29.88,11.622c0.234,0.352,0.52,0.681,0.849,0.977&#10;&#9;&#9;&#9;&#9;c0.131,0.122,0.264,0.211,0.399,0.312c1.849,1.357,4.324,1.336,5.731-0.11l4.615-4.727c1.44-1.468,1.225-3.908-0.442-5.581&#10;&#9;&#9;&#9;&#9;C422.743,822.711,422.67,822.64,422.599,822.567z" style="fill: rgb(21, 92, 143);"/>
		</g>
		<path fill="#006A96" d="M381.786,863.074c-5.647,0-10.223,4.572-10.223,10.223c0,5.638,4.576,10.215,10.223,10.215&#10;&#9;&#9;&#9;c5.639,0,10.216-4.578,10.216-10.215C392.002,867.645,387.425,863.074,381.786,863.074z" style="fill: rgb(21, 92, 143);"/>
	</g>
	<g>
		<path fill="#002638" d="M1008.041,742.595H755.746c-8.009,0-14.456,6.493-14.456,14.471V903.22&#10;&#9;&#9;&#9;c0,7.982,6.447,14.487,14.456,14.487h252.296c8.034,0,14.486-6.505,14.486-14.487V757.066&#10;&#9;&#9;&#9;C1022.527,749.089,1016.076,742.595,1008.041,742.595z M999.796,897.929H762.945V760.496h236.851V897.929z"/>
		<g>
			<path fill="#002638" d="M1056.893,986.322c0.404,0,0.778,0.134,1.128,0.35h0.679l-41.331-59.883l-271.372-0.612l-31.166,60.495&#10;&#9;&#9;&#9;&#9;h0.846c0.365-0.217,0.736-0.35,1.139-0.35H1056.893z M849.808,979.587l4.597-8.377l60.889,0.071l6.065,8.306H849.808z&#10;&#9;&#9;&#9;&#9; M760.676,934.38l240.53,0.214l21.118,30.13l-276.315-0.341L760.676,934.38z"/>
			<path fill="#002638" d="M1058.021,985.284H715.677c-1.693,1.577-2.947,6.599-2.947,12.683c0,7.405,1.813,13.322,4.086,13.322&#10;&#9;&#9;&#9;&#9;h340.077c2.275,0,4.086-5.917,4.086-13.322C1060.979,991.883,1059.746,986.861,1058.021,985.284z"/>
		</g>
	</g>
	<g>
		<g>
			<path fill="#006A96" d="M903.171,842.212c-0.077-0.062-0.151-0.123-0.23-0.19c-0.049-0.037-0.097-0.074-0.156-0.11&#10;&#9;&#9;&#9;&#9;c-4.642-4.93-11.325-7.93-18.664-7.85v-0.006c-0.097-0.003-0.193,0.006-0.296,0c-0.102,0.006-0.194-0.003-0.304,0v0.006&#10;&#9;&#9;&#9;&#9;c-7.332-0.08-14.009,2.921-18.652,7.85c-0.054,0.036-0.108,0.073-0.156,0.11c-0.085,0.067-0.165,0.128-0.237,0.19&#10;&#9;&#9;&#9;&#9;c-1.577,1.396-1.93,3.476-0.791,4.633l3.482,3.577c1.139,1.164,3.336,0.979,4.913-0.422c0.043-0.034,0.074-0.07,0.122-0.111&#10;&#9;&#9;&#9;&#9;v0.007c0.049-0.043,0.08-0.086,0.123-0.137c0.132-0.156,0.27-0.318,0.413-0.475c2.635-2.907,6.514-4.685,10.784-4.59v0.031&#10;&#9;&#9;&#9;&#9;c0.083-0.006,0.157-0.031,0.238-0.031c0.027,0,0.043-0.006,0.067-0.006c0.019,0,0.043,0.006,0.062,0.006&#10;&#9;&#9;&#9;&#9;c0.079,0,0.156,0.025,0.233,0.031v-0.031c4.272-0.095,8.153,1.682,10.786,4.59c0.15,0.157,0.282,0.319,0.417,0.475&#10;&#9;&#9;&#9;&#9;c0.04,0.05,0.079,0.094,0.117,0.137l0.012-0.007c0.046,0.042,0.082,0.077,0.119,0.111c1.572,1.4,3.776,1.586,4.913,0.422&#10;&#9;&#9;&#9;&#9;l3.476-3.577C905.102,845.688,904.748,843.608,903.171,842.212z" style="fill: rgb(21, 92, 143);"/>
			<path fill="#006A96" d="M936.172,802.362c-0.102-0.11-0.215-0.227-0.328-0.336c-0.153-0.129-0.31-0.242-0.465-0.342&#10;&#9;&#9;&#9;&#9;c-13.47-12.324-31.739-19.62-51.554-19.074c-19.824-0.546-38.081,6.75-51.551,19.074c-0.163,0.1-0.324,0.212-0.463,0.342&#10;&#9;&#9;&#9;&#9;c-0.119,0.108-0.233,0.226-0.33,0.336c-1.261,1.406-1.326,3.428-0.067,4.711l4.165,4.263c1.218,1.238,3.243,1.373,4.793,0.383&#10;&#9;&#9;&#9;&#9;l0.007,0.006c0.028-0.018,0.07-0.054,0.092-0.074c0.142-0.101,0.279-0.203,0.419-0.325c0.192-0.162,0.35-0.341,0.496-0.526&#10;&#9;&#9;&#9;&#9;c11.041-10.011,25.957-15.923,42.134-15.455v0.007c0.103-0.007,0.202,0,0.304-0.007c0.102,0.007,0.199,0,0.296,0.007v-0.007&#10;&#9;&#9;&#9;&#9;c16.183-0.468,31.106,5.445,42.142,15.455c0.145,0.184,0.309,0.364,0.497,0.526c0.132,0.122,0.284,0.224,0.422,0.325&#10;&#9;&#9;&#9;&#9;c0.025,0.021,0.061,0.056,0.086,0.074l0.012-0.006c1.552,0.99,3.577,0.855,4.796-0.383l4.152-4.263&#10;&#9;&#9;&#9;&#9;C937.495,805.79,937.43,803.768,936.172,802.362z" style="fill: rgb(21, 92, 143);"/>
			<path fill="#006A96" d="M918.159,822.742c-0.163-0.132-0.319-0.254-0.492-0.365c-8.635-8.382-20.541-13.463-33.546-13.408l0,0&#10;&#9;&#9;&#9;&#9;c-0.097,0-0.193,0-0.296,0s-0.202,0-0.304,0l0,0c-12.992-0.055-24.897,5.026-33.531,13.408c-0.177,0.111-0.338,0.233-0.496,0.365&#10;&#9;&#9;&#9;&#9;c-0.058,0.062-0.125,0.119-0.186,0.18c-1.4,1.4-1.581,3.458-0.37,4.689l3.881,3.981c1.182,1.213,3.265,1.232,4.823,0.095&#10;&#9;&#9;&#9;&#9;c0.113-0.092,0.224-0.163,0.327-0.267c0.286-0.251,0.527-0.529,0.719-0.821c6.486-6.214,15.409-9.923,25.138-9.776&#10;&#9;&#9;&#9;&#9;c9.723-0.147,18.655,3.562,25.136,9.776c0.191,0.292,0.435,0.57,0.716,0.821c0.111,0.104,0.221,0.175,0.334,0.267&#10;&#9;&#9;&#9;&#9;c1.559,1.137,3.641,1.118,4.82-0.095l3.88-3.981c1.21-1.231,1.03-3.289-0.37-4.689&#10;&#9;&#9;&#9;&#9;C918.279,822.861,918.218,822.804,918.159,822.742z" style="fill: rgb(21, 92, 143);"/>
		</g>
		<path fill="#006A96" d="M883.826,856.815c-4.745,0-8.598,3.846-8.598,8.595c0,4.743,3.853,8.591,8.598,8.591&#10;&#9;&#9;&#9;c4.747,0,8.594-3.849,8.594-8.591C892.42,860.661,888.573,856.815,883.826,856.815z" style="fill: rgb(21, 92, 143);"/>
	</g>
	<path fill="#002638" d="M702.784,876.012H509.223c-14.826,0-26.836,12.024-26.836,26.844v112.223&#10;&#9;&#9;c0,14.83,12.011,26.829,26.836,26.829h193.562c14.818,0,26.83-11.999,26.83-26.829V902.856&#10;&#9;&#9;C729.614,888.036,717.603,876.012,702.784,876.012z M501.967,948.266c5.905,0,10.694,4.79,10.694,10.701&#10;&#9;&#9;c0,5.917-4.789,10.695-10.694,10.695c-5.917,0-10.704-4.778-10.704-10.695C491.263,953.055,496.05,948.266,501.967,948.266z&#10;&#9;&#9; M706.707,895.75v128.582H521.025V895.75H706.707z"/>
	<g>
		<g>
			<path fill="#006A96" d="M627.091,973.751c-0.068-0.056-0.137-0.111-0.205-0.174c-0.046-0.03-0.089-0.061-0.137-0.095&#10;&#9;&#9;&#9;&#9;c-4.123-4.373-10.055-7.038-16.567-6.965v-0.01c-0.089-0.006-0.177,0.01-0.267,0c-0.091,0.01-0.174-0.006-0.267,0v0.01&#10;&#9;&#9;&#9;&#9;c-6.509-0.073-12.441,2.592-16.564,6.965c-0.043,0.034-0.089,0.065-0.138,0.095c-0.074,0.063-0.141,0.117-0.206,0.174&#10;&#9;&#9;&#9;&#9;c-1.399,1.238-1.715,3.082-0.704,4.113l3.091,3.176c1.007,1.031,2.964,0.866,4.361-0.374c0.042-0.033,0.062-0.07,0.107-0.101&#10;&#9;&#9;&#9;&#9;l0.005,0.006c0.04-0.039,0.073-0.079,0.11-0.12c0.117-0.142,0.239-0.284,0.365-0.422c2.338-2.585,5.785-4.159,9.574-4.073v0.025&#10;&#9;&#9;&#9;&#9;c0.076-0.006,0.138-0.025,0.212-0.025c0.019,0,0.037-0.007,0.055-0.007c0.018,0,0.039,0.007,0.056,0.007&#10;&#9;&#9;&#9;&#9;c0.074,0,0.14,0.019,0.211,0.025v-0.025c3.786-0.086,7.235,1.488,9.575,4.073c0.128,0.138,0.25,0.279,0.37,0.422&#10;&#9;&#9;&#9;&#9;c0.036,0.042,0.07,0.082,0.107,0.12l0.007-0.006c0.037,0.031,0.067,0.068,0.105,0.101c1.397,1.24,3.354,1.405,4.359,0.374&#10;&#9;&#9;&#9;&#9;l3.087-3.176C628.805,976.833,628.495,974.989,627.091,973.751z" style="fill: rgb(21, 92, 143);"/>
			<path fill="#006A96" d="M656.386,938.375c-0.086-0.101-0.187-0.206-0.294-0.298c-0.128-0.116-0.27-0.217-0.407-0.309&#10;&#9;&#9;&#9;&#9;c-11.96-10.939-28.174-17.414-45.77-16.933c-17.593-0.481-33.804,5.994-45.764,16.933c-0.146,0.092-0.284,0.193-0.413,0.309&#10;&#9;&#9;&#9;&#9;c-0.105,0.092-0.207,0.198-0.289,0.298c-1.119,1.243-1.177,3.038-0.062,4.181l3.696,3.78c1.076,1.099,2.882,1.221,4.254,0.343&#10;&#9;&#9;&#9;&#9;l0.012,0.004c0.024-0.018,0.055-0.046,0.076-0.068c0.129-0.088,0.254-0.175,0.376-0.287c0.169-0.144,0.312-0.303,0.44-0.466&#10;&#9;&#9;&#9;&#9;c9.798-8.888,23.044-14.135,37.408-13.723v0.007c0.088-0.007,0.177,0,0.267-0.007c0.091,0.007,0.178,0,0.267,0.007v-0.007&#10;&#9;&#9;&#9;&#9;c14.365-0.413,27.607,4.835,37.408,13.723c0.126,0.163,0.276,0.322,0.442,0.466c0.117,0.111,0.248,0.199,0.371,0.287&#10;&#9;&#9;&#9;&#9;c0.027,0.022,0.058,0.05,0.077,0.068l0.018-0.004c1.37,0.878,3.174,0.756,4.251-0.343l3.69-3.78&#10;&#9;&#9;&#9;&#9;C657.559,941.413,657.505,939.618,656.386,938.375z" style="fill: rgb(21, 92, 143);"/>
			<path fill="#006A96" d="M640.394,956.465c-0.146-0.119-0.285-0.229-0.438-0.327c-7.663-7.44-18.233-11.954-29.775-11.901l0,0&#10;&#9;&#9;&#9;&#9;c-0.089,0-0.177,0-0.267,0s-0.18,0-0.267,0l0,0c-11.537-0.054-22.107,4.46-29.772,11.901c-0.151,0.098-0.3,0.208-0.435,0.327&#10;&#9;&#9;&#9;&#9;c-0.056,0.052-0.114,0.105-0.172,0.159c-1.24,1.244-1.397,3.068-0.327,4.163l3.451,3.531c1.047,1.082,2.9,1.094,4.276,0.083&#10;&#9;&#9;&#9;&#9;c0.102-0.074,0.199-0.143,0.293-0.232c0.252-0.224,0.468-0.471,0.64-0.73c5.754-5.516,13.68-8.809,22.314-8.679&#10;&#9;&#9;&#9;&#9;c8.637-0.131,16.563,3.163,22.317,8.679c0.172,0.26,0.389,0.506,0.633,0.73c0.096,0.089,0.2,0.158,0.295,0.232&#10;&#9;&#9;&#9;&#9;c1.382,1.011,3.234,0.999,4.284-0.083l3.44-3.531c1.079-1.096,0.919-2.919-0.325-4.163&#10;&#9;&#9;&#9;&#9;C640.503,956.57,640.449,956.516,640.394,956.465z" style="fill: rgb(21, 92, 143);"/>
		</g>
		<path fill="#006A96" d="M609.914,986.713c-4.211,0-7.63,3.41-7.63,7.627c0,4.214,3.419,7.632,7.63,7.632&#10;&#9;&#9;&#9;c4.215,0,7.63-3.418,7.63-7.632C617.545,990.123,614.13,986.713,609.914,986.713z" style="fill: rgb(21, 92, 143);"/>
	</g>
</g>
</svg>